<svg width="40" height="40" viewBox="0 0 40 40" fill="none" xmlns="http://www.w3.org/2000/svg">
<g clip-path="url(#clip0_753_309)">
<path d="M20 40C23.9556 40 27.8224 38.827 31.1114 36.6294C34.4004 34.4318 36.9638 31.3082 38.4776 27.6537C39.9913 23.9992 40.3874 19.9778 39.6157 16.0982C38.844 12.2186 36.9392 8.65492 34.1421 5.85787C31.3451 3.06082 27.7814 1.15601 23.9018 0.384303C20.0222 -0.387401 16.0009 0.00866572 12.3463 1.52242C8.69181 3.03617 5.56823 5.59962 3.37061 8.8886C1.17298 12.1776 0 16.0444 0 20C0.00573513 25.3026 2.11471 30.3863 5.8642 34.1358C9.61368 37.8853 14.6974 39.9943 20 40ZM20 8.33334C20.4944 8.33334 20.9778 8.47996 21.3889 8.75467C21.8 9.02937 22.1205 9.41982 22.3097 9.87663C22.4989 10.3334 22.5484 10.8361 22.452 11.3211C22.3555 11.806 22.1174 12.2515 21.7678 12.6011C21.4181 12.9507 20.9727 13.1888 20.4877 13.2853C20.0028 13.3818 19.5001 13.3323 19.0433 13.143C18.5865 12.9538 18.196 12.6334 17.9213 12.2223C17.6466 11.8111 17.5 11.3278 17.5 10.8333C17.5 10.1703 17.7634 9.53441 18.2322 9.06557C18.7011 8.59673 19.337 8.33334 20 8.33334ZM18.3333 16.6667H20C20.8841 16.6667 21.7319 17.0179 22.357 17.643C22.9821 18.2681 23.3333 19.1159 23.3333 20V30C23.3333 30.442 23.1577 30.866 22.8452 31.1785C22.5326 31.4911 22.1087 31.6667 21.6667 31.6667C21.2246 31.6667 20.8007 31.4911 20.4882 31.1785C20.1756 30.866 20 30.442 20 30V20H18.3333C17.8913 20 17.4674 19.8244 17.1548 19.5118C16.8423 19.1993 16.6667 18.7754 16.6667 18.3333C16.6667 17.8913 16.8423 17.4674 17.1548 17.1548C17.4674 16.8423 17.8913 16.6667 18.3333 16.6667Z" fill="#FFF0E5"/>
</g>
<defs>
<clipPath id="clip0_753_309">
<rect width="40" height="40" fill="white"/>
</clipPath>
</defs>
</svg>
