<svg width="60" height="68" viewBox="0 0 60 68" fill="none" xmlns="http://www.w3.org/2000/svg">
<g clip-path="url(#clip0_757_48)">
<path d="M59.2243 17.5848C58.2558 11.8924 55.4677 7.66546 52.9962 8.14507C52.6475 8.21186 52.3256 8.3695 52.029 8.6073C50.8654 9.53711 50.128 11.6906 49.9743 14.4133C49.8902 15.9135 49.9823 17.5861 50.2776 19.3229C51.0711 23.9866 53.0871 27.6658 55.1471 28.5796C55.6013 28.7826 56.0595 28.8494 56.5071 28.7626C58.9759 28.283 60.1956 23.2772 59.2243 17.5848Z" fill="#FFAE43"/>
<path d="M52.5514 7.66012C53.9728 7.39026 55.5505 6.08238 55.9861 4.72774C56.284 3.79392 56.6059 2.86544 56.1357 1.90624C55.6895 1.00315 54.431 0.272389 53.1579 0.0586393C52.5246 -0.0468998 51.8874 -0.0255244 51.345 0.165515C51.1072 0.249679 50.8868 0.41667 50.6944 0.579654C50.164 1.02452 49.7592 1.49878 49.46 1.99575C48.7934 3.10324 48.6584 4.33497 48.8882 5.61881C49.1434 7.04158 50.9122 7.96739 52.55 7.65879L52.5514 7.66012Z" fill="#FFAE43"/>
<path d="M58.9024 65.7988L58.5925 63.5571C58.5377 63.1683 58.0287 62.7341 57.2552 62.3414C56.8143 62.1183 56.288 61.9085 55.7095 61.7282L55.6441 61.3007C55.6454 60.964 55.6187 60.634 55.5532 60.3161C55.4731 59.922 55.3929 59.5279 55.3101 59.1338L53.8178 49.4175C53.7791 49.165 53.6054 48.9526 53.3649 48.8658L52.9775 48.7255C52.7424 48.64 52.5701 48.4356 52.526 48.1884L51.6002 42.8874L55.4196 42.4292C56.0488 42.3544 56.4403 42.138 56.3655 41.9095L55.604 39.6197C55.3087 38.7313 52.8306 38.1355 50.3284 38.3506L49.8875 38.3893L48.7693 38.4855H48.764L45.193 38.7901C44.7922 38.8249 44.4716 38.9144 44.2873 39.0319C44.2365 39.1575 44.1937 39.2871 44.1603 39.414L45.2705 42.2181L45.5751 42.9876C45.698 43.2949 46.5971 43.4873 47.4427 43.3844L49.0472 43.1934C49.0485 43.8694 49.0512 44.719 49.0525 45.6181C49.0565 47.2025 49.0606 48.9352 49.0646 50.1296C49.0659 50.207 49.0659 50.2819 49.0659 50.3553C49.0699 50.7842 49.0712 51.1302 49.0726 51.3493C49.0739 51.4882 49.0739 51.5777 49.0766 51.6071C49.0899 51.9598 50.0451 57.5774 50.1707 58.3148C50.1814 58.3683 50.1827 58.4204 50.1787 58.4752L50.0345 60.7449L48.2643 60.4951C48.0466 60.4644 47.8489 60.4537 47.6792 60.4577C47.2864 60.471 47.0486 60.5766 47.082 60.7489L47.8128 64.3787C47.8742 64.6833 48.7453 65.0573 49.6163 65.1535L51.5374 65.3646L53.6468 65.5957L57.2525 65.9911L57.8443 66.0566C58.4936 66.1274 58.9318 66.0192 58.9011 65.7948L58.9024 65.7988Z" fill="#8AA3E2"/>
<path d="M44.2886 39.0332C44.2378 39.1588 44.1951 39.2884 44.1617 39.4153L44.1296 39.3351C44.0882 39.2283 44.1483 39.124 44.2886 39.0332Z" fill="white"/>
<path d="M20.0012 45.1358C21.7633 51.5056 21.1395 57.6001 17.3521 63.1776C14.9648 66.6952 11.1841 68.2569 7.80814 67.1574C5.35536 66.3572 3.70147 64.6124 2.52719 62.3975C1.06033 59.6307 0.441787 56.6529 0.501904 53.5228C0.619467 49.332 1.52122 45.3643 3.89518 41.8213C6.78749 37.5023 11.319 36.1062 15.2159 38.4494C17.7408 39.9671 19.2371 42.3811 19.9999 45.1345L20.0012 45.1358ZM13.7517 52.4741C13.9281 49.6833 12.87 47.3441 11.3858 47.2399C11.3818 47.2386 11.3778 47.2386 11.3738 47.2386C9.88553 47.1451 8.53623 49.336 8.35855 52.1334C8.18221 54.9309 9.24694 57.2768 10.7352 57.3703C12.2261 57.4638 13.5754 55.2716 13.7504 52.4741H13.7517Z" fill="#FFAE43"/>
<path d="M19.7635 5.01894C19.3921 3.58682 18.6092 2.51272 17.2252 1.77395C14.2327 0.180177 10.472 2.26691 8.99314 4.59545C5.53841 10.034 4.05685 16.0711 3.64137 22.4168C3.51045 25.5937 4.39484 28.4727 6.10618 31.1138C7.24172 32.8652 8.5456 33.3421 10.5816 32.8091C14.3649 31.8205 16.5799 28.9776 18 25.7313C20.899 19.0877 21.6111 12.1248 19.7648 5.01761L19.7635 5.01894ZM15.9841 4.71969V4.71435C16.1391 4.52465 17.149 5.77909 17.141 5.91669C17.141 5.91669 17.137 5.92204 17.133 5.92471C17.1317 5.92872 17.1317 5.93272 17.1277 5.93272H17.1263C16.9954 5.94608 15.8652 5.23536 15.9841 4.72103V4.71969ZM6.38138 26.0506C5.40481 25.3319 5.40481 22.7214 5.31263 21.785C5.21911 20.8511 6.2371 17.6649 6.24645 17.6142C6.24645 17.6142 6.36936 17.1412 6.68998 17.0584C7.00793 16.9756 7.22302 19.0516 7.22302 19.4324C7.22302 19.8131 8.00454 23.5858 8.45609 24.5103C8.90897 25.4347 10.4707 26.1134 10.5829 26.2937C10.6965 26.4754 10.3478 26.8121 9.29773 27.1621C8.25036 27.5108 7.35662 26.7707 6.38005 26.0519L6.38138 26.0506ZM10.6911 31.2701C8.12478 31.5921 7.26978 30.3577 7.26978 30.3577C7.26978 30.3577 10.106 30.339 11.6009 29.6523C13.1359 28.9442 15.6902 26.8401 15.769 26.78C15.7062 26.8829 13.2241 30.9495 10.6911 31.2701ZM17.6901 14.5869C17.0702 16.9101 16.0562 19.1385 15.0863 21.3548C14.3302 23.0848 12.7485 23.9946 11.3858 23.7261C9.81073 23.4148 8.93035 22.1577 8.82615 20.0509C8.81012 19.737 8.82481 19.4203 8.82481 19.1024C8.91432 14.7726 9.8134 10.6379 11.8761 6.79841C12.9863 4.73038 14.1686 4.5153 15.7116 6.31347C17.7542 8.69544 18.493 11.5717 17.6901 14.5883V14.5869Z" fill="#FF92A7"/>
<path d="M44.6707 8.36412C44.6653 8.44561 44.6586 8.54848 44.6519 8.66871L44.6439 8.7983L44.6252 9.0922L44.151 16.5908L44.1109 17.2241L44.0962 17.4672L44.0815 17.7037L44.0668 17.9334C44.0628 18.0082 44.0588 18.0831 44.0534 18.1565L44.0334 18.4732C44.0281 18.5399 44.0254 18.6067 44.0201 18.6722L44.008 18.8632C43.988 19.1732 43.9706 19.4404 43.9573 19.6541L43.9492 19.7744C43.9452 19.8318 43.9426 19.8852 43.9386 19.932L43.9332 20.0188V20.0228L20.9751 31.3943L20.923 31.4077L24.9095 11.1656C25.1379 10.0006 25.365 8.83704 25.5961 7.6721L25.6536 7.39022C25.866 6.31613 26.0824 5.24069 26.3002 4.16794C26.4779 3.2929 27.2981 2.24686 28.0984 1.8581C29.8351 1.0178 31.7535 0.555564 34.086 -0.227295C34.086 -0.227295 24.8266 21.0128 24.7264 21.8998C24.6784 22.3353 25.0885 23.1249 26.1626 22.7628C26.4458 22.6667 27.9888 21.5284 30.0648 19.936C30.8544 19.3255 31.6439 18.7136 32.4335 18.1031C37.6677 14.0272 44.2685 8.73818 44.3861 8.60592L44.668 8.36278L44.6707 8.36412Z" fill="#8AA3E2"/>
<path d="M42.775 56.9402C42.7536 56.7424 42.608 56.5808 42.4129 56.538L31.5464 54.1574C31.1857 54.0786 30.9599 53.7206 31.0414 53.3612C31.7441 50.2792 32.4415 47.1945 33.1402 44.1112C33.3005 43.5768 33.4648 43.0544 33.585 42.7405C33.9137 41.8801 33.6465 42.0618 33.4007 42.2262C33.1535 42.3905 32.9077 43.7264 32.7007 44.5694C32.5697 45.1038 32.4014 45.5379 32.2959 45.7851C32.8022 43.1159 33.3232 40.2129 33.7467 37.9805C33.7747 37.8363 33.8015 37.696 33.8282 37.5571C33.8282 37.5571 33.573 36.7141 31.664 36.4576C30.6887 36.34 29.3822 36.2786 28.9186 38.1475C27.1498 45.2601 25.2835 52.3486 23.5188 59.4611C23.0365 61.4035 22.7519 63.3954 22.3485 65.5837C22.3178 65.7507 22.4179 65.9177 22.5823 65.9604C26.0317 66.8662 29.2192 65.8054 32.3934 65.5476C35.768 65.2737 39.1158 64.6712 42.3835 64.225C43.495 64.0687 42.9366 58.383 42.7776 56.9402H42.775ZM31.8216 47.4203C31.8216 47.4203 31.8229 47.4189 31.8229 47.4163C31.8376 47.3321 31.8804 47.2239 31.9432 47.113C32.0674 46.8966 32.2317 46.7563 32.3065 46.7991C32.352 46.8258 32.3546 46.9113 32.3253 47.0235V47.0302C32.3253 47.0369 32.3199 47.0489 32.3119 47.0636C32.3106 47.0689 32.3079 47.0716 32.3065 47.0756C32.2852 47.1357 32.2544 47.2052 32.2157 47.272C32.1235 47.4323 32.01 47.5525 31.9258 47.5833C31.9191 47.5899 31.9124 47.5966 31.9071 47.602C31.9191 47.7008 31.9258 47.8251 31.9258 47.9613C31.9258 48.2779 31.8884 48.5331 31.8457 48.5331C31.8029 48.5331 31.7655 48.2779 31.7655 47.9613C31.7655 47.7088 31.7895 47.4951 31.8203 47.4203H31.8216ZM31.4769 49.7662C31.5411 49.7662 31.5932 49.8183 31.5932 49.8824C31.5932 49.9465 31.5411 49.996 31.4769 49.996C31.4128 49.996 31.3634 49.9452 31.3634 49.8824C31.3634 49.8196 31.4141 49.7662 31.4769 49.7662ZM25.353 65.2831C25.0898 65.2831 24.8774 65.1829 24.8774 65.0587C24.8774 64.9344 25.0898 64.8329 25.353 64.8329C25.6162 64.8329 25.8273 64.9331 25.8273 65.0587C25.8273 65.1842 25.6148 65.2831 25.353 65.2831Z" fill="#FF92A7"/>
</g>
<defs>
<clipPath id="clip0_757_48">
<rect width="60" height="68" fill="white"/>
</clipPath>
</defs>
</svg>
