<svg width="392" height="44" viewBox="0 0 392 44" fill="none" xmlns="http://www.w3.org/2000/svg">
<path d="M384.095 15.9504C376.354 11.9809 370.192 13.6465 362.526 12.837C345.547 11.014 323.408 7.18463 306.053 5.42073C292.939 4.06102 279.558 3.05084 266.481 2.27054C265.808 2.23003 265.388 2.47786 265.084 2.46015C262.206 2.29034 257.467 1.73281 254.604 1.60025C248.588 1.30468 238.217 0.751044 232.714 0.803585C230.385 0.820649 228.023 0.782798 227.089 1.40931C226.232 1.41338 225.786 0.80389 225.563 0.764145C225.561 0.764648 225.558 0.76515 225.556 0.765653C224.839 0.641155 223.014 1.001 222.616 0.963364C222.556 0.957553 222.937 0.537987 221.964 0.639095C221.878 0.647767 221.948 0.942543 221.134 0.923066C220.921 0.917143 218.213 0.393299 217.439 0.347203C214.886 0.188473 208.639 0.413749 205.554 0.368602C205.081 0.361896 204.811 0.18691 204.312 0.177309C204.055 0.17215 203.666 0.353198 203.587 0.351216C203.24 0.339995 201.735 -0.521254 202.26 1.1509C200.683 1.0282 201.153 0.482819 201.121 0.124571C199.418 0.0560029 198.553 0.835014 198.11 1.13336e-05C189.599 0.0390952 181.09 0.182059 172.657 0.42914C172.653 0.293622 172.648 0.158109 172.643 0.022592C170.128 0.608809 169.25 -0.287647 167.835 0.52974C166.948 0.376181 166.063 0.223751 165.18 0.0724395C142.62 1.16519 119.913 1.85297 97.6046 4.04518C96.6525 4.13909 96.442 4.44915 94.8814 4.60921C93.1589 4.78589 90.7164 4.70443 88.4847 4.95347C86.4981 5.17328 83.5576 5.78268 81.3665 6.0873C80.8702 6.15553 80.4896 6.01727 80.4338 6.02498C80.1063 6.07155 80.1243 6.36075 79.8074 6.40733C79.4282 6.46242 78.9435 6.30557 78.5074 6.37242C76.9032 6.6168 75.0291 6.78093 74.8284 6.81185C73.8139 6.96927 73.6278 7.27923 73.5446 7.29306C72.4222 7.47371 72.812 7.16576 72.5336 7.21701C71.0912 7.48536 70.1542 8.25259 68.1095 7.91514C68.1952 8.14213 68.2806 8.36916 68.3661 8.59618C66.886 8.93414 67.7898 8.1754 67.468 8.10483C67.3646 8.07462 64.0547 8.61799 63.8081 8.66681C62.93 8.83419 62.9528 9.14897 62.8769 9.16415C62.6917 9.2006 60.4296 9.1713 59.3504 9.61228C58.0728 10.1339 59.7287 10.5306 59.4173 10.6991C59.3641 10.7273 57.9702 10.8725 57.8164 11.0989C57.6442 11.3429 58.8372 11.1563 58.833 11.2486C58.8271 11.3114 56.9169 12.0533 57.342 12.2905C57.688 12.539 60.3204 11.7511 60.9194 11.8061C61.0175 11.8151 60.8932 12.2075 60.9791 12.2084C61.2963 12.204 67.6573 11.304 67.8952 11.2169C67.5493 11.0947 67.209 10.9719 66.8584 10.8507C67.2893 10.7734 67.7103 10.6978 68.1377 10.6217C67.5078 10.5723 66.8914 10.5217 66.237 10.4773C66.9876 8.96962 69.8894 9.99205 70.1028 10.6629C70.1933 10.9735 68.6322 12.0165 70.2527 12.2809C70.0269 12.3943 69.8015 12.5078 69.5765 12.6214C69.0716 12.5538 68.5676 12.4867 68.0645 12.42C68.3756 12.2911 68.6873 12.1623 68.9997 12.0336C68.8674 11.9546 68.7352 11.8756 68.6029 11.7966C67.6762 11.768 66.7443 11.742 65.7837 11.7219C65.315 11.8601 65.4545 12.1274 65.134 12.2284C61.1564 13.5005 63.6845 12.2447 61.0519 12.7601C60.6972 12.9671 60.3435 13.1743 59.9908 13.3816C60.0296 12.7377 58.9218 13.304 57.4839 13.2503C57.682 13.4264 57.88 13.6027 58.078 13.7789C56.0291 13.9787 51.9657 15.6776 52.9261 14.3815C52.4696 14.5528 52.0147 14.7244 51.5612 14.8963C51.1353 14.7793 50.7099 14.6627 50.2852 14.5464C49.7433 14.6577 49.2033 14.7695 48.6651 14.8817C48.6792 14.9805 48.6933 15.0793 48.7075 15.1781C49.1394 15.1058 49.5723 15.0339 50.0064 14.9622C49.7306 15.3163 49.4559 15.6706 49.1823 16.0249C48.8553 16.0286 48.5289 16.0326 48.2031 16.0367C49.4878 15.5276 47.6532 15.3614 47.1584 15.0396C45.9691 15.0928 45.3218 15.7353 44.9395 15.8261C44.7581 15.8682 42.4688 15.3412 43.4799 16.1875C42.3648 16.2613 41.2568 16.3371 40.1561 16.4148C39.7484 16.5685 39.342 16.7225 38.937 16.8768C39.9312 17.1701 37.4049 18.218 39.3778 18.0485C40.8541 17.9235 41.1378 17.4258 41.833 17.3026C42.4608 17.1911 42.8456 17.4229 43.5346 17.3135C48.254 16.5602 51.8388 15.9103 56.2934 15.0781C57.1802 14.9127 57.9656 14.9388 58.5394 14.8305C59.185 14.7083 58.315 14.4649 59.1569 14.4283C60.0421 14.3907 60.277 14.6626 60.5085 14.634C60.6525 14.6158 61.0677 14.2779 61.4886 14.2155C63.2144 13.9583 65.8183 13.8535 66.0691 13.8173C66.3905 13.7644 71.1827 12.8577 71.4255 12.7843C71.5465 12.7436 71.155 11.7788 72.377 12.7005C72.717 12.6757 73.0575 12.651 73.3985 12.6266C73.3176 12.4341 73.2367 12.2417 73.1557 12.0492C75.2632 12.5445 74.5146 12.2105 76.4714 12.022C81.0566 11.5819 87.973 10.6103 92.9524 10.1663C94.0813 10.0649 94.5361 10.2601 95.8793 10.1414C97.123 10.029 100.34 8.99462 99.7217 10.0558C102.374 8.93509 102.956 10.3781 104.249 9.32785C104.428 9.44712 104.608 9.56643 104.787 9.68579C106.236 8.97402 106.746 9.43985 108.401 9.36731C109.116 9.33677 108.242 8.79265 109.74 9.35404C110.011 9.27992 110.282 9.20592 110.553 9.13201C110.477 8.9888 110.4 8.84559 110.324 8.7024C111.947 8.68946 112.01 8.60767 111.884 9.17748C112.632 9.01434 113.382 8.852 114.134 8.69049C114.243 8.86554 114.352 9.04062 114.461 9.21571C114.178 9.54778 96.7411 10.5676 94.2772 10.7032C91.5009 11.4007 85.7595 11.5145 83.4677 11.8871C82.5572 12.0339 82.2016 12.4925 80.8856 12.701C79.5631 12.9102 77.898 12.7378 77.1555 12.8178C74.709 13.0575 63.676 14.651 71.2682 14.1377C71.0778 14.3669 70.8877 14.5962 70.6981 14.8255C67.605 14.5513 68.8007 14.8152 66.2675 15.2421C65.2031 15.4218 62.627 15.341 62.9019 16.2283C64.8673 16.1124 66.9766 15.5176 68.6378 15.3021C68.8031 15.2802 70.8492 15.4228 71.8677 15.1731C72.7862 14.9466 72.0267 14.1637 74.1925 14.8705C75.586 13.7225 76.5835 14.4739 76.9979 14.5147C77.7122 14.5864 77.7479 14.105 78.4161 13.9664C79.1492 13.8141 79.6995 14.0634 79.8012 14.053C80.8094 13.9315 86.1852 13.3457 86.4219 13.1313C86.1948 13.0725 85.9677 13.0139 85.7408 12.9554C87.1309 12.6611 86.8927 13.1758 87.2692 13.1916C87.5449 13.1588 87.8209 13.1262 88.0973 13.0937C87.9766 13.0061 87.8559 12.9186 87.7352 12.8311C89.404 12.6675 88.1812 13.1522 90.494 12.891C91.9619 12.7258 93.4531 12.1851 93.6004 12.1983C93.6438 12.202 93.2038 12.5075 93.8117 12.4791C94.8173 12.4312 96.5571 12.2487 96.7181 11.8797C97.2174 11.8797 97.2095 12.2262 97.276 12.2274C97.5798 12.2273 102.493 11.8712 103.359 11.8158C105.785 11.648 108.5 11.3358 111.179 11.1719C111.454 11.155 111.264 10.9493 111.535 10.934C111.966 10.909 114.216 11.075 114.552 11.0737C115.386 11.0671 117.573 10.7619 117.928 10.8364C117.978 10.8469 117.276 11.1988 118.13 11.2274C119.079 11.2591 118.543 10.8969 118.593 10.8891C120.502 10.6098 121.742 10.8016 123.066 10.7634C123.495 10.7509 124.24 10.3972 124.84 10.4462C124.909 10.4517 124.793 10.7392 124.86 10.7484C125.764 10.8341 126.57 10.2624 126.957 10.2037C127.903 10.0602 127.41 10.4751 127.46 10.4746C128.095 10.4458 128.941 10.2538 129.912 10.2121C134.266 10.026 137.76 9.85563 142.35 9.60608C142.927 9.57499 143.602 9.27334 143.69 9.26885C143.964 9.25806 143.9 9.57791 144.693 9.53421C146.363 9.44115 147.928 9.3886 149.549 9.31609C149.878 9.30136 150.007 9.00246 150.258 8.98602C151.098 8.93268 154.011 9.59224 154.025 8.63581C155.739 9.42087 156.835 8.6541 158.2 8.61829C161.453 8.52997 166.397 8.57292 169.627 8.39922C170.303 8.36186 170.616 8.11079 170.993 8.09032C171.681 8.05079 175.514 8.12461 175.709 8.0849C176.1 8.00539 175.848 6.92846 177.884 7.84261C179.072 7.89518 178.927 7.45449 179.173 7.42777C181.088 7.22835 182.972 8.20319 182.614 7.30031C184.856 7.52906 186.337 8.02434 187.225 7.17466C187.215 7.58791 188.257 7.83202 189.517 7.67336C188.221 6.98174 188.403 6.53458 185.254 6.67583C185.204 6.67812 185.3 6.97641 185.251 6.9787C184.799 7.00114 183.857 6.85579 183.09 6.87766C182.323 6.89962 182.751 7.10071 182.444 7.09914C182.163 7.09732 182.17 6.81129 181.764 6.81067C180.446 6.81071 179.283 6.74458 178.537 6.74826C178.067 6.75079 177.545 7.00857 177.181 7.01334C175.769 7.02875 172.812 6.87874 170.983 6.94226C170.606 6.95597 170.77 7.23454 169.947 7.27438C169.851 7.27907 169.494 6.99213 168.773 6.94653C168.051 6.90098 167.497 7.05951 167.036 7.03973C166.65 7.02331 166.804 6.75831 166.015 6.76088C165.35 6.75656 157.94 7.15628 157.508 7.21898C156.924 7.2982 156.658 7.67413 156.3 7.64152C156.237 7.63408 156.118 7.28369 155.9 7.26581C152.301 6.96275 144.425 7.77505 140.329 7.9872C131.837 8.41341 123.941 8.7057 115.304 9.29438C115.147 9.24485 114.989 9.19537 114.832 9.14591C115.697 9.07562 116.564 9.00642 117.434 8.93833C117.427 8.77169 117.42 8.60506 117.413 8.43843C118.589 8.32344 118.463 8.72871 118.447 8.9683C118.876 8.83515 119.306 8.70227 119.736 8.56966C120.145 9.12127 123.084 8.52412 124.54 8.42811C125.504 8.36279 126.671 8.50827 127.181 8.45815C128.26 8.35302 128.21 7.99754 128.294 7.98634C128.438 7.9689 129.971 8.1891 131.068 8.11099C132.689 7.99648 132.832 7.43575 135.094 7.77596C137.883 7.33336 141.018 7.31539 144.091 7.21944C143.482 6.73813 146.259 7.0918 147.509 7.03134C154.977 6.65545 164.255 6.15435 171.925 5.8187C172.918 5.77525 173.651 5.46348 174.193 5.46474C174.488 5.46514 174.621 5.81639 175.03 5.76342C175.102 5.75339 175.146 5.42206 175.909 5.36133C177.802 5.20613 182.567 5.71094 183.777 5.07158C190.304 5.12657 196.86 5.24404 203.357 5.42159C203.522 5.28861 203.687 5.15566 203.852 5.02275C205.076 5.72556 209.984 5.39691 212.395 5.48276C216.596 5.62583 221.925 5.98761 225.637 6.13641C226.44 6.16819 227.118 5.99567 227.866 6.02603C228.189 6.03947 228.583 6.30745 228.92 6.32101C232.7 6.47558 237.876 6.43235 241.736 6.62665C250.395 7.05907 258.624 7.51391 267.44 8.15917C297.111 10.3395 326.498 14.0505 355.662 18.4347C356.053 18.4936 356.079 18.2023 356.383 18.2477C358.18 18.5122 362.139 19.3886 364.147 19.7062C365.751 19.9579 368.373 19.9444 368.852 20.4812C363.044 20.1914 357.015 19.174 351.035 18.4625C350.611 18.4119 350.517 18.6783 350.464 18.6755C349.488 18.6263 350.152 18.3393 348.76 18.114C348.293 18.0361 343.872 18.2843 344.503 17.4868C343.41 17.678 336.086 16.8276 334.701 16.5292C334.279 16.4362 334.616 16.2183 334.533 16.1937C334.173 16.0869 333.959 16.4213 333.63 16.3863C332.751 16.2901 330.565 15.7062 330.142 15.6534C329.167 15.5277 326.184 15.4388 324.902 15.2087C323.726 14.9972 323.994 14.6519 322.974 14.4901C322.171 14.3643 323.01 14.7861 321.199 14.6597C320.301 14.5955 317.214 13.9965 316.459 13.9085C315.701 13.8191 314.844 13.9453 313.789 13.806C312.276 13.6053 309.001 13.1105 307.473 12.8719C307.382 12.8578 307.191 12.5425 306.964 12.5239C306.495 12.4852 306.596 12.8597 306.239 12.8578C305.875 12.851 299.791 12.1654 298.737 12.0675C298.016 11.9964 297.54 11.7325 297.142 11.6946C296.829 11.6655 296.766 11.9616 296.447 11.9334C296.349 11.9236 295.535 11.5802 294.697 11.5047C293.904 11.4322 290.882 11.394 290.536 11.365C290.31 11.3448 290.577 11.1549 289.909 11.0978C289.3 11.0463 288.875 11.2861 288.529 11.2584C287.724 11.1935 286.848 10.8763 285.997 10.799C283.55 10.5781 283.629 10.9326 283.484 10.9307C283.07 10.9258 282.932 10.5977 282.798 10.5795C282.23 10.5037 280.84 10.3268 280.334 10.2721C279.704 10.2039 279.411 10.48 278.741 10.4255C278.242 10.384 277.258 10.0101 276.121 9.90467C273.553 9.66453 270.549 9.37962 267.995 9.2056C267.239 9.1538 267.104 9.41831 266.872 9.40882C265.657 9.35945 265.001 9.00762 264.655 8.98749C262.185 8.84102 257.781 9.03464 255.508 8.9385C254.569 8.89577 250.492 8.43347 248.195 8.35064C247.932 8.34049 248.166 8.56781 247.875 8.51851C247.181 8.40054 247.269 7.96839 246.914 7.96269C246.742 7.96131 246.339 8.18629 245.84 8.18481C243.25 8.17723 241.511 7.90308 240.309 7.85965C228.918 7.45 217.42 7.2153 206.771 7.09074C205.589 7.07653 204.129 6.79608 202.351 7.02804C202.295 7.16299 202.239 7.29795 202.183 7.43292C202.122 7.299 202.061 7.16509 202.001 7.03118C199.998 6.93782 199.229 6.75953 197.15 6.91533C196.971 6.9284 196.422 7.54407 196.089 6.77359C194.035 7.3207 195.163 6.76426 193.643 6.70715C192.124 6.65086 190.652 6.82143 189.188 6.86203C188.386 7.13779 191.755 7.77094 191.976 7.7706C192.331 7.76862 192.7 7.3871 193.043 7.36761C194.056 7.30915 195.037 7.61674 195.267 7.27666C196.579 7.64361 194.944 7.45556 195.107 7.7813C195.984 7.65072 196.862 7.52125 197.742 7.39291C198.197 8.49811 203.015 7.10417 202.671 7.94385C203.055 7.77984 203.44 7.61605 203.824 7.45248C205.49 8.52979 206.486 7.80021 208.744 7.52468C208.579 7.65683 208.415 7.78902 208.25 7.92125C208.295 7.97791 210.279 8.22938 209.579 7.64164C211.605 8.43725 211.545 7.17575 213.361 8.1257C214.434 8.26646 213.798 7.72193 215.724 7.77639C216.865 7.80874 218.278 8.12171 219.559 8.17645C219.854 8.18817 219.991 7.88547 220.254 7.89288C220.517 7.90043 220.636 8.2044 220.955 8.22116C221.612 8.25635 222.473 8.07125 222.884 8.10429C223.253 8.133 223.773 8.41408 224.663 8.48456C227.775 8.73471 226.849 8.32695 227.344 8.21535C227.871 8.09758 228.229 8.60887 229.273 8.58921C229.378 8.58697 229.119 8.26651 229.458 8.29121C229.733 8.31095 229.858 8.65328 230.765 8.75073C231.122 8.78617 236.759 9.08941 237.625 9.13818C238.945 9.20502 241.919 9.05899 243.262 9.12892C243.784 9.15498 244.33 9.454 244.886 9.48071C246.727 9.56842 249.686 9.70528 252.04 9.82918C254.166 9.93838 257.903 9.57091 259.016 10.1855C261.964 10.4468 262.718 10.0385 262.941 10.0467C263.546 10.0707 263.805 10.395 264.566 10.4622C274.439 11.315 287.387 12.2152 296.715 13.1809C318.323 15.3916 339.961 18.3734 361.479 21.7268C361.515 21.8699 361.551 22.013 361.586 22.1562C359.046 21.8331 355.993 21.5896 353.477 21.2574C350.105 20.8076 345.252 19.5203 342.634 20.0833C343.625 20.3072 345.307 20.193 345.205 20.66C343.42 20.4337 341.616 20.2096 339.825 19.9919C339.909 19.7815 339.993 19.571 340.077 19.3606C338.218 19.034 336.304 18.8178 334.439 18.5335C334.115 18.4844 334.372 18.3175 334.089 18.2783C333.773 18.2348 333.96 18.4653 333.901 18.4589C333.101 18.3532 332.887 18.1172 332.789 18.1071C332.538 18.0817 332.707 18.3016 331.979 18.26C330.629 18.1837 329.74 17.5432 329.941 18.4436C329.512 18.3873 329.076 18.3303 328.641 18.2738C328.559 18.0252 328.476 17.7766 328.394 17.528C325.597 18.1266 324.575 16.3153 322.936 17.4467C322.475 17.1852 322.013 16.9241 321.552 16.6633C321.249 16.8638 320.947 17.0644 320.645 17.2651C320.616 17.0576 320.587 16.8501 320.558 16.6426C317.917 16.4701 315.195 15.9033 312.661 15.6364C310.905 15.452 310.477 15.4844 308.928 15.2964C305.487 14.882 308.863 15.657 305.956 15.776C306.132 15.5453 306.307 15.3147 306.483 15.0841C306.019 14.9421 305.556 14.8004 305.092 14.6591C304.741 14.825 304.39 14.991 304.039 15.1573C302.69 13.9573 301.656 14.7024 301.458 14.6817C301.296 14.6633 300.817 13.9766 299.029 14.3324C299.839 13.5459 297.7 14.1923 297.536 14.1814C297.379 14.1688 295.404 13.7781 294.595 13.7079C293.958 13.6517 292.585 13.7059 291.641 13.6074C290.808 13.5203 290.92 13.2364 290.859 13.2275C289.835 13.1069 290.457 13.3942 289.714 13.3361C288.972 13.2782 288.421 12.9765 288.259 12.9841C288.177 12.9885 288.421 13.2854 288.05 13.278C287.053 13.2587 285.299 12.8607 284.156 12.7677C283.751 12.7343 283.221 12.9208 282.77 12.8889C282.079 12.8392 281.783 12.5047 281.381 12.4796C281.241 12.4717 280.311 12.8698 279.213 12.705C279.005 12.673 278.47 11.618 277.535 12.9728C277.488 12.7676 277.441 12.5624 277.394 12.3572C273.737 11.5619 272.59 13.113 271.064 11.5449C268.374 11.505 270.17 12.2052 269.871 12.2693C269.675 12.3093 268.806 12.0896 268.709 12.0914C268.536 12.096 268.552 12.2786 268.365 12.2639C264.929 11.9813 266.48 11.7519 265.407 11.4583C262.858 10.7637 260.767 11.7673 265.282 11.7354C265.275 11.8361 265.268 11.9368 265.261 12.0376C264.16 11.8623 261.354 11.7186 262.255 12.2927C262.96 12.7399 269.645 12.9529 265.829 13.248C264.964 13.3153 264.546 12.9056 263.018 13.5129C262.037 13.4848 261.958 12.5567 260.61 12.8375C260.849 12.5315 261.088 12.2256 261.327 11.9198C259.547 11.3814 257.289 11.8001 255.92 11.5359C255.46 11.4456 253.832 9.81414 254.141 11.3659C253.346 11.2209 249.579 11.2868 248.893 11.1133C248.728 11.0715 248.552 10.2436 246.121 10.4C245.948 10.4931 245.775 10.5864 245.602 10.6796C247.793 11.0912 243.881 11.1896 244.9 12.0168C245.276 11.6878 247.037 11.5682 247.329 11.4092C247.827 11.1348 246.412 10.6701 248.236 10.8745C249.317 12.2272 246.056 11.4555 246.495 12.7083C244.131 12.0105 243.866 12.5464 243.324 12.5416C241.022 12.5197 239.54 12.3198 237.338 12.3649C236.811 12.088 240.816 11.9063 241.306 12.0407C239.535 11.0619 242.652 11.1694 243.929 11.7663C244.052 11.5022 244.176 11.2381 244.299 10.9741C242.587 11.0336 240.928 11.0285 239.226 10.7283C239.11 10.824 238.995 10.9198 238.879 11.0155C239.254 11.1849 239.63 11.3544 240.005 11.5242C238.577 11.7072 239.461 10.9591 237.545 11.5633C237.5 11.257 237.455 10.9507 237.41 10.6444C235.598 10.665 233.791 10.6904 231.99 10.7206C231.076 10.0729 227.618 10.1739 228.222 10.9861C226.831 10.9925 228.561 10.6333 227.265 10.3955C226.694 10.292 225.571 10.2308 225.287 10.434C225.379 11.1888 227.064 11.3392 227.543 11.8729C227.233 12.0215 219.458 11.2429 220.134 12.147C219.512 12.2353 219.809 11.7903 218.697 11.6441C215.59 11.2348 210.721 12.0265 208.206 10.8632C211.182 10.2898 212.077 10.9715 214.331 11.048C215.758 11.0874 224.595 11.4483 222.646 10.5985C222.969 10.7093 223.291 10.8203 223.614 10.9315C223.951 10.7055 224.288 10.4796 224.626 10.2539C223.697 10.1897 222.769 10.1268 221.843 10.0652C221.615 10.2944 221.387 10.5237 221.159 10.7531C221.062 10.5818 220.965 10.4104 220.868 10.2391C220.479 10.1944 220.09 10.1499 219.702 10.1057C219.805 10.3111 219.909 10.5166 220.013 10.7221C219.412 10.7398 218.811 10.7581 218.212 10.7769C218.38 10.5107 218.549 10.2445 218.717 9.97839C215.898 9.83644 216.849 10.0313 215.276 10.4993C214.112 10.524 216.089 10.0488 213.631 9.86112C210.739 9.64673 212.617 10.5097 208.875 10.2636C208.824 10.1277 208.772 9.9918 208.72 9.85589C207.895 9.97656 207.071 10.0982 206.249 10.2209C206.36 10.0547 206.471 9.88846 206.582 9.72228C204.887 9.76062 202.565 9.41239 202 10.0652C203.712 9.76745 203.682 10.918 203.235 11.1237C202.359 11.5253 188.68 11.0499 186.099 11.058C182.698 11.037 180.151 11.429 177.075 10.9029C179.128 10.4039 186.549 10.7302 187.904 10.4125C188.041 10.3808 188 9.3265 188.883 10.5108C191.721 10.3048 195.131 10.6479 198.724 10.6418C198.616 10.3375 198.509 10.0333 198.401 9.729C196.189 10.3573 194.163 8.93368 194.444 10.1134C194.007 10.1118 193.57 10.1105 193.134 10.1094C193.134 9.9063 193.135 9.70323 193.135 9.50015C192.477 9.49852 191.82 9.49753 191.163 9.49715C191.163 9.70023 191.163 9.90331 191.163 10.1064C190.619 10.1061 190.076 10.1062 189.534 10.1067C189.478 9.90431 189.421 9.70189 189.364 9.49946C187.762 9.91761 182.154 8.82643 184.623 10.0213C183.851 10.0258 183.081 10.0311 182.311 10.0373C182.313 9.88877 182.314 9.74026 182.315 9.59175C181.984 9.57446 181.654 9.55732 181.323 9.54034C181.433 9.67376 181.543 9.8072 181.653 9.94066C180.136 9.71293 178.715 10.4367 177.721 9.98415C178.372 9.87444 179.024 9.76535 179.677 9.65687C178.423 9.86229 176.117 9.49362 175.912 9.49602C175.285 9.50305 174.959 9.80817 174.282 9.83414C173.671 9.85698 173.751 9.62508 173.638 9.63506C170.301 9.92782 171.596 11.155 170.006 9.70707C169.844 9.91229 169.682 10.1175 169.521 10.3228C169.296 10.159 169.072 9.99521 168.848 9.83151C167.863 9.86838 166.88 9.90665 165.9 9.94632C166.221 9.68607 166.542 9.42597 166.864 9.16602C165.388 9.08793 164.718 9.612 164.576 9.6271C164.174 9.66685 163.982 9.3542 163.858 9.35688C157.897 9.55017 161.535 9.72773 158.56 11.0115C157.47 10.5779 158.543 10.0739 158.681 9.59305C157.256 9.86204 156.806 9.74495 155.302 9.82359C154.911 9.84448 154.5 10.1163 154.254 10.1287C154.041 10.1394 153.364 9.89082 152.853 9.90895C152.001 9.93887 150.875 10.1453 149.715 10.1887C148.765 10.2225 145.759 10.1576 143.674 10.255C142.786 10.297 143.003 10.5155 142.774 10.527C142.679 10.5315 141.974 10.2916 141.407 10.3187C136.806 10.54 132.032 10.9849 127.394 11.2799C124.156 11.486 120.773 11.5023 117.491 11.7735C116.793 11.8315 117.178 12.0038 116.874 12.0341C116.77 12.044 116.616 11.7037 115.552 11.9278C115.167 12.0088 115.633 12.2183 115.252 12.2603C115.067 12.2807 114.963 11.9801 113.875 11.9965C111.904 12.0259 110.87 12.5246 110.687 12.5275C110.347 12.5322 110.425 12.2705 109.977 12.2991C107.791 12.439 105.979 12.5559 104.057 12.7101C103.17 12.7746 96.9596 13.3221 96.609 13.409C95.8534 13.5874 96.6188 14.0436 95.6368 14.1251C95.3489 14.0193 95.061 13.9137 94.7734 13.8081C95.198 13.6618 95.6237 13.5157 96.0502 13.3699C94.8648 13.6613 93.4845 13.562 92.6034 13.6644C92.4399 13.6834 90.9684 14.0822 90.2068 14.1389C90.5406 14.203 90.8747 14.2673 91.2091 14.3317C91.1036 14.4286 90.9983 14.5256 90.893 14.6225C89.3741 14.6565 87.7211 14.843 86.1383 15.042C85.5675 15.1135 85.7841 15.2967 85.2077 15.3702C81.8631 15.8039 82.5988 14.8509 79.609 16.8404C80.6566 16.5612 84.6305 16.2966 85.208 16.1784C85.6047 16.0943 87.0202 14.5611 86.6024 16.017C89.837 15.6473 86.9655 15.1906 89.9737 15.0286C89.9331 15.2049 89.8924 15.3811 89.8518 15.5574C90.8975 15.5514 91.6739 15.5552 92.2745 15.1883C92.5712 15.9886 96.0669 15.1354 98.0478 14.9978C100.95 14.7899 104.045 14.7037 106.872 14.4901C107.838 14.4169 108.36 14.0462 108.482 14.0367C108.66 14.0236 109.184 14.264 109.54 14.2358C110.895 14.1259 114.816 13.3259 115.877 14.0377C108.069 14.645 100.22 15.3609 92.3887 16.1925C93.3398 15.6938 85.4234 16.5242 85.0118 16.6017C84.6415 16.6621 84.9862 16.8964 84.8775 16.9257C84.0675 17.1373 83.322 16.8275 83.0617 16.8583C82.8634 16.8819 82.4846 17.1133 81.7815 17.1936C81.6527 17.2085 81.5934 17.0182 81.4549 17.0343C80.5391 17.1447 79.6392 17.2576 78.7279 17.3698C78.672 17.3787 78.4807 17.691 78.241 17.7215C78.0035 17.7512 77.7333 17.4968 77.6733 17.5034C76.9237 17.5995 75.6688 17.9473 74.9633 18.041C74.7183 18.0727 74.8612 17.8427 74.5869 17.8803C73.7453 17.9953 74.0751 18.3659 73.0239 18.398C72.6719 18.4087 72.6527 18.0944 71.9944 18.2241C71.5285 18.3162 71.654 18.8639 71.5823 18.894C71.4823 18.9318 69.8089 18.7129 69.335 19.1484C70.6136 19.9481 68.0883 19.3713 68.1483 18.952C67.5118 19.1444 66.8698 19.3386 66.2343 19.5328C65.9979 19.4621 65.7616 19.3915 65.5254 19.321C62.9752 20.1581 61.3573 20.1161 58.8621 20.6435C58.7582 20.6657 56.6164 21.2317 56.7405 21.3601C58.0982 21.3995 59.3473 21.2194 60.0954 20.6385C61.5701 21.3068 61.4834 20.608 63.6903 20.4016C64.4304 20.3335 64.5178 20.5627 64.6028 20.5534C67.5255 20.2461 72.0309 19.7358 73.8792 18.7914C74.4433 18.9077 72.5137 19.2377 73.2857 19.2763C73.7087 19.2804 83.6481 18.271 80.3887 17.8643C80.7167 17.8467 81.0452 17.8293 81.374 17.812C81.7904 18.5269 83.3965 18.1606 83.1234 17.4308C83.2963 17.5664 83.4691 17.702 83.6419 17.8377C83.9629 17.9319 84.3328 17.9592 84.8466 17.9414C86.861 17.8432 98.323 16.3682 99.0042 16.4305C99.0358 16.6079 99.0675 16.7853 99.0991 16.9626C93.9438 17.6731 89.0281 17.7488 83.4705 18.9217C83.612 18.7354 83.7538 18.549 83.8958 18.3628C81.6881 18.8598 79.5811 19.3543 77.3462 19.8749C79.7722 19.8734 83.4446 19.6876 85.9125 19.153C86.348 19.0579 85.9983 18.8616 86.0963 18.8217C86.3528 18.718 86.6831 19.09 87.6417 19.0217C88.6132 18.951 90.9449 18.405 91.1575 18.391C91.575 18.3626 92.7491 18.7059 93.4606 18.6254C94.3962 18.5191 93.7385 18.2978 93.9259 18.2721C94.7013 18.1625 95.4162 18.2327 96.027 18.149C96.9322 18.0243 98.7847 17.3301 99.5004 18.0097C98.8476 18.1076 98.1966 18.2061 97.5474 18.3052C101.156 18.2143 103.723 17.0167 107.28 17.4396C108.148 18.2689 105.27 18.4008 107.728 18.5704C107.286 18.5962 106.845 18.6222 106.405 18.6486C106.285 18.4696 106.165 18.2905 106.045 18.1115C105.3 18.3138 104.558 18.517 103.819 18.7209C104.018 18.5333 104.217 18.3458 104.417 18.1583C101.746 18.2747 99.0174 18.3686 98.1553 19.3647C98.0781 19.1524 98.0008 18.9401 97.9234 18.7278C95.4374 19.2404 91.6311 18.7133 92.4539 19.851C92.3302 19.7992 92.2065 19.7475 92.0828 19.6958C90.6198 20.1036 91.2024 19.5345 90.6372 19.5385C90.4922 19.5368 87.5721 20.1228 88.9197 20.3368C86.0715 20.9341 86.834 19.7046 86.0367 19.7448C84.2635 20.5142 80.9085 20.0666 82.3842 20.787C82.1184 20.8525 81.8529 20.9182 81.5879 20.984C80.6184 20.395 79.8476 21.2889 78.9277 21.6709C78.5975 21.728 78.2681 21.7853 77.939 21.8428C77.6878 21.6367 77.4367 21.4306 77.1855 21.2247C74.2276 22.7356 74.8143 19.5656 73.7422 22.3081C73.981 22.4323 74.2199 22.5565 74.4591 22.6809C74.9878 22.6855 75.5179 22.6906 76.049 22.6961C73.9531 23.0349 71.8797 23.3802 69.8292 23.7318C67.3068 24.8114 65.6216 24.2585 62.787 25.2569C62.5031 25.2297 62.2197 25.2026 61.9365 25.1757C62.302 25.7119 63.3458 25.468 61.4153 26.0234C61.3093 26.457 62.6448 26.3099 63.2085 25.9063C63.344 25.808 62.0477 25.6804 63.4512 25.461C64.4088 25.3124 62.7356 26.0577 65.588 25.4564C65.4955 25.5718 65.4031 25.6872 65.3108 25.8026C65.6228 25.7544 65.9354 25.7063 66.2485 25.6583C66.4941 25.3871 66.7404 25.1159 66.9874 24.8448C67.7456 25.078 68.2557 25.4823 69.8362 25.1617C69.3814 25.077 69.9062 24.5303 70.7046 24.4291C70.7275 24.5966 70.7504 24.764 70.7733 24.9315C72.7197 24.7765 71.986 24.3753 73.6537 24.5435C73.7981 24.3888 73.9427 24.2341 74.0875 24.0794C75.0393 24.5103 78.3686 24.4646 77.6666 23.7177C78.7052 24.3987 80.5566 23.8023 81.1845 23.0763C81.2592 23.2363 81.3339 23.3963 81.4084 23.5563C81.789 23.5443 82.1702 23.5325 82.552 23.5209C82.7506 23.3948 82.9496 23.2687 83.1488 23.1427C83.4291 23.2116 83.7098 23.2805 83.9906 23.3496C84.1332 23.1631 84.2759 22.9767 84.419 22.7903C84.8757 22.9399 85.333 23.0898 85.7908 23.2401C86.0412 23.0758 86.292 22.9116 86.5434 22.7475C86.6083 23.0928 89.2698 22.8703 89.9875 22.5606C90.2144 22.6384 90.4412 22.7162 90.6682 22.7941C90.7556 22.6163 90.8431 22.4385 90.9306 22.2607C91.1062 22.3762 91.2815 22.4918 91.4571 22.6074C91.8139 22.4341 92.1714 22.2611 92.5298 22.0882C94.1368 22.7419 94.1124 22.0221 94.4614 21.9905C95.1074 21.9317 97.3722 22.2169 97.742 22.1541C98.1101 22.0904 98.2603 21.7797 98.5576 21.7224C103.475 20.777 101.48 21.7685 102.483 21.7972C103.015 21.8153 103.363 21.5071 103.832 21.4941C104.63 21.4684 108.719 21.4689 108.955 21.4152C109.292 21.3345 108.375 20.1139 109.516 20.3506C109.611 21.0395 111.939 20.139 110.904 21.1992C111.886 21.0312 112.846 20.8666 113.801 20.7041C113.758 21.5344 114.903 20.9097 116.209 20.8538C118.053 20.7711 122.288 21.0067 122.078 20.1758C122.539 20.3377 123.002 20.4998 123.464 20.6623C126.468 20.1862 129.439 20.2736 132.476 20.1025C141.443 19.5964 151.109 18.9817 160.095 18.5441C160.527 18.5228 160.461 18.2485 160.766 18.2333C162.37 18.153 166.579 18.2376 168.864 18.1299C169.595 18.0949 169.947 17.8184 170.179 17.8013C170.967 17.7419 170.788 18.1006 171.151 18.0833C171.731 18.0548 174.745 17.6731 175.77 17.625C176.281 17.6004 176.89 17.874 177.49 17.7792C177.541 17.7715 177.442 17.482 177.486 17.4764C178.58 17.427 177.925 17.6866 178.295 17.6688C180.934 17.5423 183.783 17.513 186.674 17.4421C187.381 17.424 188.466 17.2163 189.075 17.1962C189.308 17.1891 188.891 17.4101 189.695 17.391C189.97 17.3845 190.064 17.0976 190.376 17.079C191.718 17.0008 192.166 17.9232 193.324 17.1847C195.546 17.2376 199.5 17.5015 201.495 17.5294C201.974 17.5354 202.209 17.3686 202.666 17.377C202.99 17.3828 203.558 17.6521 204.065 17.6619C204.571 17.6716 205.375 17.4325 206.353 17.4566C207.382 17.4812 208.663 17.6518 208.895 17.6552C209.176 17.6601 209.313 17.3469 209.595 17.356C210.441 17.3811 212.732 17.7375 213.812 17.7959C214.976 17.8576 215.68 17.7218 216.079 17.7346C216.448 17.7479 216.873 18.025 217.042 18.0317C217.304 18.0424 217.374 17.7329 217.708 17.7441C218.254 17.7635 218.812 17.9741 219.632 18.0022C234.413 18.5119 248.911 19.0541 263.261 19.8163C264.865 19.902 265.755 20.1827 268.131 20.2569C269.095 20.2873 268.714 19.937 269.457 20.0534C269.785 20.1054 269.683 20.351 270.098 20.3946C271.936 20.5857 274.107 20.5214 274.909 20.5898C275.227 20.6164 275.567 20.9315 276.219 20.9885C281.089 21.4151 286.845 21.8417 292.061 22.3942C294.824 22.6848 299.031 23.2542 302.175 23.6075C310.939 24.5846 320.335 25.637 328.343 26.7155C340.332 28.3248 352.282 30.3633 364.262 32.0335C358.595 31.7923 350.93 30.5294 344.715 29.6977C326.663 27.2602 307.455 24.5446 288.86 22.8342C282.444 22.2381 274.217 21.5334 267.138 21.1835C266.814 21.1671 266.16 20.8986 265.461 20.8724C265.312 20.8669 263.449 21.1394 262.832 21.1016C263.466 20.4277 261.003 20.8986 260.26 20.8328C259.321 20.748 257.382 20.2629 255.177 20.3301C253.155 20.3899 253.692 20.6991 253.58 20.7095C252.862 20.7782 252.64 20.3208 252.098 20.2441C249.863 19.9183 238.496 19.5912 235.273 19.4869C234.449 19.4559 234.414 19.7368 234.229 19.7301C233.737 19.7114 233.05 19.4044 232.264 19.3749C230.848 19.3222 229.211 19.5274 228.436 19.5004C226.599 19.4355 223.01 19.0022 220.59 18.9277C219.907 18.9063 219.94 19.2008 219.631 19.1911C218.27 19.1465 214.751 18.7122 213.073 18.6743C210.306 18.6092 207.471 18.7486 204.689 18.6141C204.51 18.7426 204.332 18.8711 204.154 18.9997C203.878 18.8587 203.602 18.7178 203.326 18.577C198.673 18.6238 193.766 18.302 189.119 18.3284C188.578 18.3302 185.933 18.5894 185.469 18.5936C185.095 18.5955 184.725 18.2733 184.171 18.3245C183.397 18.3959 184.129 19.0081 182.864 18.8407C182.524 18.7956 182.851 18.5286 182.168 18.4518C181.939 18.4239 177.578 18.3632 177.348 18.3868C176.96 18.4227 176.621 18.9936 176.521 19.0072C176.001 19.0784 176.017 18.6436 175.667 18.6091C174.632 18.5054 173.302 18.8202 173.125 18.817C171.065 18.7705 167.235 18.5046 165.111 18.7655C164.817 18.8016 164.86 19.1242 164.809 19.136C164.477 19.2116 164.26 18.8487 163.943 18.8486C162.239 18.8513 159.573 19.1783 157.831 19.2992C157.631 19.3125 157.204 19.1494 156.849 19.1785C154.842 19.3469 155.505 19.6094 155.391 19.6253C155.122 19.665 154.636 19.3684 153.917 19.3754C152.053 19.3907 148.58 19.5763 146.557 19.6922C145.061 19.7786 145.102 20.1372 145.004 20.1487C144.795 20.1713 144.2 19.9115 143.218 19.9261C141.332 19.9535 141.562 20.2258 140.789 20.2523C140.725 20.2556 140.823 19.9739 139.967 19.9893C138.315 20.0178 134.633 20.493 132.833 20.5875C132.147 20.6232 131.971 20.367 131.27 20.4046C130.158 20.4623 127.686 20.9092 127.492 20.9218C127.437 20.9254 127.294 20.6277 126.971 20.6489C126.616 20.6723 126.278 20.8528 126.014 20.8694C124.527 20.9634 121.851 20.6169 122.66 21.6561C122.151 21.4214 121.643 21.1871 121.135 20.9531C117.941 21.2385 114.885 21.3679 111.754 21.5734C111.038 21.6208 110.46 21.8775 109.859 21.9188C109.256 21.959 106.59 21.8494 106.153 21.8834C105.356 21.9405 100.962 22.3159 100.392 22.3988C99.301 22.5514 98.2901 23.1064 97.8392 23.0628C97.4777 23.0276 97.7797 22.7412 97.0966 22.7376C95.9127 22.7311 93.9732 23.2625 93.6203 23.2951C93.4695 23.3092 93.7294 23.0812 92.317 23.2178C91.5566 23.2912 91.1741 23.553 90.8996 23.5819C90.8089 23.5909 90.921 23.2207 89.3969 23.4373C88.34 23.5885 87.9218 23.9117 87.8109 23.9252C87.645 23.9458 87.2107 23.7011 86.5464 23.7875C84.991 23.9905 82.214 24.6577 80.7707 24.8618C80.4913 24.9013 80.542 24.5391 79.4312 24.7098C78.6169 24.835 78.7928 25.096 78.4879 25.1456C78.0039 25.224 77.2364 24.9746 76.1712 25.1233C74.815 25.2937 65.0171 27.0114 64.5009 27.1983C64.166 27.3101 63.7689 27.3726 63.6216 27.5486C63.7884 27.6716 63.9553 27.7947 64.1222 27.9178C65.5584 27.1886 65.0346 27.8583 65.4414 27.8369C66.0294 27.8048 68.2288 27.4155 68.7871 27.4695C68.982 27.4897 68.6006 27.8577 69.6318 27.876C70.7256 27.8973 71.1306 27.2819 71.6619 27.9753C73.0785 26.9323 74.68 27.6225 72.9301 28.097C72.0034 28.3378 62.1796 30.0426 60.2787 30.4037C58.6863 30.6852 55.5697 30.9509 53.6229 31.3327C52.4619 31.5572 49.6748 32.0713 49.8381 32.4539C48.7999 32.6842 49.8394 32.0976 49.6103 32.0803C49.124 32.0431 45.9321 32.8858 45.3311 32.9854C42.3645 33.4635 38.467 33.7421 35.6792 34.8187C35.8344 34.8979 35.9894 34.9772 36.1447 35.0565C36.8236 35.1212 39.8131 34.2537 40.2629 34.6982C35.7791 35.5508 31.4541 36.4306 27.0492 37.3943C27.0452 36.9356 21.6338 38.1598 21.4066 38.4266C21.5506 38.6124 21.6947 38.7982 21.8385 38.9842C24.7635 37.4783 24.6958 38.5977 26.6085 37.5902C27.4377 37.3999 27.2628 37.7999 27.6875 37.7759C31.9458 37.5413 27.5882 37.0513 30.8339 36.6852C29.9638 37.3911 32.6764 37.012 33.7907 36.8536C34.0445 36.8132 37.4666 35.9973 37.8916 35.9259C40.2661 35.5057 44.2454 35.0498 46.5196 34.3627C48.3357 34.0057 49.4529 34.1821 51.1064 33.9859C52.3562 33.8389 51.9591 33.6466 52.5444 33.545C53.7755 33.3321 54.3102 34.0355 54.9305 32.8311C55.7961 32.8272 56.6658 32.8244 57.5395 32.8229C57.513 32.6559 57.4865 32.489 57.4599 32.322C57.9957 32.2369 58.5334 32.1522 59.0729 32.0679C59.2576 32.2095 59.4423 32.3512 59.6271 32.4929C61.2697 32.0051 60.503 31.7124 60.7438 31.1909C61.0986 31.1033 61.4543 31.0158 61.8107 30.9285C62.1456 31.2493 62.4803 31.5704 62.8152 31.8916C64.427 31.6191 66.0547 31.3505 67.6977 31.086C67.7805 30.904 67.8633 30.722 67.9464 30.5401C67.9735 30.7064 68.0007 30.8727 68.0278 31.0389C70.8526 30.6727 73.5182 30.3459 76.3227 30.0164C77.0911 30.1868 72.6839 30.974 72.3629 31.0377C70.5668 31.3658 65.5004 31.8172 65.5975 32.4138C64.3665 32.1382 60.9359 32.7678 59.9562 33.4664C61.5693 33.1834 63.1846 32.9065 64.8228 32.6325C64.7991 32.8395 64.7755 33.0465 64.7519 33.2534C66.68 32.1497 66.9919 32.1497 69.2309 32.608C69.1952 32.3404 69.1595 32.0728 69.124 31.8051C70.742 32.5242 73.07 30.6015 73.3096 31.7396C74.0758 31.5418 74.8454 31.3449 75.6186 31.1488C77.3322 31.0722 74.82 32.2785 81.4202 31.101C81.8691 31.0214 81.7386 30.7398 82.4223 30.677C82.6207 30.6595 83.7929 30.9478 85.962 30.6493C86.3008 30.6026 86.2969 30.3452 86.6464 30.272C87.4525 30.1005 89.1443 30.4191 88.3093 29.6828C91.5386 29.0776 90.2748 29.9026 91.2936 30.0607C91.9706 30.1664 91.7854 29.6953 92.3681 29.7436C93.0917 29.8046 92.6166 30.3472 95.4405 29.8231C95.1169 29.8231 94.7937 29.8234 94.471 29.8237C94.6176 29.6737 94.7644 29.5237 94.9113 29.3738C96.5729 29.5233 96.373 29.0733 97.2202 29.7424C98.3763 29.2878 99.4071 29.1574 101.057 29.0584C104.218 28.8752 102.663 29.8343 106.154 28.4176C106.751 28.5173 107.348 28.6176 107.946 28.7184C108.881 28.3128 108.065 27.9793 109.499 27.773C108.439 28.6632 111.458 28.1115 112.036 28.7764C112.076 28.6034 112.117 28.4304 112.157 28.2575C112.479 28.2306 112.811 28.2031 113.123 28.1774C113.135 28.3124 113.147 28.4475 113.159 28.5825C113.572 28.4467 113.986 28.3111 114.4 28.1757C114.729 28.284 115.058 28.3925 115.387 28.5011C115.887 28.1768 116.39 27.8529 116.894 27.5294C117.223 27.4843 117.552 27.4395 117.881 27.3948C117.792 27.6042 117.703 27.8135 117.614 28.0229C118.033 27.9229 118.453 27.8231 118.875 27.7236C118.404 28.0917 118.743 28.4546 120.071 28.3456C121.169 28.2567 119.878 27.6568 122.267 27.7724C122.431 27.7817 122.774 28.2492 125.002 28.1719C127.648 28.0839 126.343 27.815 126.813 27.7708C126.906 27.7626 127.731 27.9565 128.493 27.943C128.926 27.9353 129.33 27.7088 129.387 27.7057C129.654 27.6979 129.75 27.9759 130.12 27.9628C131.061 27.9281 132.318 27.7122 133.245 27.6715C133.667 27.6526 134.073 27.797 134.262 27.7881C134.554 27.773 134.91 27.4956 135.206 27.4797C136.315 27.4213 137.968 28.1833 138.409 26.976C139.498 28.0055 141.605 26.5823 141.484 27.3187C144.25 26.8949 151.743 27.4732 151.456 26.264C153.067 27.2489 152.898 26.4971 153.558 26.4878C154.297 26.4776 153.922 26.6948 154.509 26.6641C155.879 26.5928 157.191 26.4604 158.565 26.412C158.344 26.2512 158.123 26.0904 157.902 25.9298C159.343 25.8291 158.858 26.2352 160.336 26.2649C163.024 26.3222 161.879 26.0451 162.263 25.5935C162.168 26.02 165.321 25.8689 165.644 25.8063C165.836 25.7676 164.978 25.2403 166.924 25.3701C166.822 25.541 166.72 25.7119 166.618 25.8828C167.495 25.6305 169.914 25.8706 170.324 25.8063C170.511 25.7761 171.494 24.3977 172.44 25.4559C172.548 25.2855 172.657 25.1151 172.766 24.9447C173.808 25.1288 174.802 25.3152 175.823 25.5028C175.98 25.197 176.137 24.8913 176.295 24.5856C176.617 24.581 176.939 24.5766 177.262 24.5723C177.051 24.8445 176.841 25.1168 176.631 25.3891C178.617 25.239 181.064 25.6401 181.469 24.7282C181.9 24.8928 182.33 25.0576 182.761 25.2227C183.039 24.9183 183.317 24.614 183.595 24.3098C185.587 24.3732 185.637 24.5759 186.985 24.8926C186.932 24.6568 186.879 24.4211 186.825 24.1853C187.818 24.5127 189.632 24.8173 191.072 24.86C191.755 24.8793 192.933 24.5565 193.095 24.5865C193.259 24.6177 194.864 25.9006 195.045 24.7957C197.418 25.2964 198.473 24.8059 199.442 24.8261C200.068 24.8398 200.343 25.1078 201.044 25.1423C202.046 25.1921 203.059 25.0759 203.639 25.1017C203.971 25.1171 204.03 25.3768 204.258 25.388C205.341 25.4423 204.71 25.1688 205.853 25.2027C205.959 25.2072 206.79 25.5354 207.735 25.5106C208.263 25.4967 209.639 25.1662 209.76 25.1695C210.297 25.1859 209.852 25.8867 211.705 25.1037C211.648 25.2376 211.592 25.3714 211.536 25.5053C213.811 25.895 214.153 25.3027 214.613 25.2713C214.671 25.2692 215.212 25.5147 215.54 25.4906C216.094 25.4492 216.325 25.1365 216.448 25.1255C216.881 25.0873 218.333 25.2651 219.296 24.9841C219.07 25.8836 222.403 26.3027 223.181 25.3018C223.769 25.5229 224.357 25.7445 224.945 25.9667C225.22 25.8067 225.495 25.6468 225.771 25.487C225.929 25.6609 226.087 25.8349 226.245 26.0089C227.127 25.6681 227.988 25.3276 228.862 24.9887C228.903 25.362 228.944 25.7352 228.985 26.1085C229.227 26.0752 229.468 26.042 229.71 26.0088C229.909 25.7209 230.108 25.433 230.307 25.1452C230.606 25.213 230.905 25.2809 231.204 25.349C231.27 25.5654 231.336 25.7818 231.402 25.9982C233.011 26.3093 232.261 24.2371 235.28 26.1579C235.769 26.0104 236.258 25.8631 236.749 25.7163C237.257 26.5594 238.301 26.1096 239.123 26.2403C239.702 26.3326 239.655 26.6563 240.448 26.7014C241.233 26.7462 241.218 26.434 241.28 26.4349C241.92 26.4469 242.388 26.7451 242.86 26.714C242.931 26.7095 243.127 26.3488 243.727 26.3559C244.327 26.3632 244.667 26.7745 245.564 26.7475C246.024 26.7341 246.173 26.43 246.581 26.4243C248.527 26.3943 250.392 28.0809 251.961 26.2983C252.273 26.5536 254.629 27.5265 255.63 27.5418C257.208 27.5642 256.625 27.16 257.255 27.1326C257.346 27.1283 257.817 27.2821 259.142 27.3464C259.379 27.358 259.31 27.5612 259.344 27.5662C260.887 27.6626 263.902 27.7054 265.61 27.7993C265.763 27.8073 266.517 28.4402 267.928 27.765C269.888 28.4843 273.708 27.5417 276.274 28.6213C276.637 28.6694 277.097 28.4999 277.258 28.5203C278.646 28.7005 278.079 29.2798 281.312 28.6354C281.029 28.9322 281.741 29.2834 282.787 29.3509C284.352 29.4525 283.296 28.7597 284.541 28.9197C284.526 29.0875 284.511 29.2553 284.496 29.4231C287.408 29.2309 287.915 30.0011 290.806 30.2797C291.846 30.3799 293.422 30.1589 293.671 30.1825C293.767 30.1929 294.868 30.7099 294.977 30.724C295.589 30.7973 295.955 30.6458 296.486 30.6984C298.251 30.8722 300.247 31.6123 299.977 30.6196C300.434 30.8708 300.89 31.1224 301.347 31.3743C303.262 30.5465 304.466 32.0982 304.952 31.1504C305.254 31.3899 305.555 31.6296 305.857 31.8694C313.676 32.6253 321.387 33.4551 329.173 34.3816C329.437 34.738 332.819 35.0782 333 35.0538C333.824 34.9388 333.08 34.1318 334.68 34.5127C334.818 34.8404 334.956 35.1681 335.093 35.4958C337.118 35.8773 336.18 35.44 337.013 35.3471C337.345 35.4317 337.203 35.6514 337.656 35.7326C340.122 36.1722 345.168 36.9181 347.85 37.3455C348.392 37.4314 348.344 37.1998 348.512 37.2247C348.975 37.2969 349.848 37.7122 350.778 37.8555C356.558 38.7366 364.672 39.904 370.51 40.6844C370.906 40.7367 371 40.4845 371.268 40.5177C371.638 40.5647 372.426 40.9197 372.814 40.9653C373.179 41.0089 373.445 40.8518 373.837 40.8972C375.628 41.102 377.951 41.8646 379.958 41.6301C380.126 41.6095 382.312 40.9292 382.37 40.8695C382.711 40.5113 381.054 39.5402 384.082 39.4863C381.572 38.4818 382.552 37.7079 386.033 37.896C384.351 37.4592 382.67 37.027 380.991 36.5994C381.008 36.4899 381.026 36.3803 381.043 36.2707C382.691 36.014 384.264 36.118 386.635 36.5133C386.58 36.3985 386.525 36.2837 386.471 36.1689C384.479 35.2707 381.982 34.713 380.52 33.7355C382.941 33.6497 385.368 33.5734 387.802 33.5066C387.7 33.405 387.599 33.3033 387.497 33.2017C386.415 32.7824 383.992 32.2049 383.098 31.8414C379.682 30.452 386.308 31.8652 385.299 31.2161C381.539 30.532 377.797 29.8726 374.044 29.2323C373.97 28.8538 388.559 30.5684 388.615 29.571C387.443 29.2799 386.273 28.9911 385.103 28.7045C385.677 28.5491 386.252 28.3942 386.827 28.2398C386.696 28.1324 386.566 28.025 386.435 27.9176C384.474 27.3474 382.514 26.7834 380.555 26.2257C386.585 27.5239 389.439 27.9299 391.281 26.2142C391.125 26.1318 390.97 26.0495 390.814 25.9672C389.253 26.9573 383.11 25.3887 379.856 24.5519C380.594 24.3057 383.451 25.1178 384.107 25.0124C384.293 24.9814 383.731 24.6157 384.159 24.5601C385.275 24.4133 389.865 24.8258 389.289 24.2902C388.915 23.9382 381.728 22.2296 380.313 22.0114C383.71 22.1288 387.155 22.6229 390.601 22.677C388.65 21.4693 386.966 20.1249 383.133 19.3796C382.036 18.7348 390.288 19.6521 390.525 19.4653C389.16 18.9493 387.795 18.4363 386.43 17.9263C387.611 18.2137 388.793 18.5033 389.975 18.7951C389.995 18.7127 390.014 18.6303 390.033 18.5479C387.01 17.5788 384.309 16.3477 380.764 15.7613C380.957 15.3411 383.066 15.766 384.095 15.9504ZM45.3171 35.6198C45.3138 35.997 46.5554 35.7113 47.2662 35.5785C47.1712 35.6639 47.0763 35.7493 46.9815 35.8347C48.4764 35.4952 51.3277 34.8621 51.521 35.5604C52.5979 35.4687 52.0247 34.9313 52.3562 34.8032C52.4858 34.7523 53.9385 34.8781 54.9946 34.2568C55.2627 34.2148 55.5313 34.1728 55.8003 34.131C55.8901 34.3555 55.9797 34.58 56.0694 34.8045C56.3982 34.4611 56.7284 34.1179 57.06 33.7748C53.1249 34.3533 49.2494 34.9601 45.3229 35.6188C45.321 35.6191 45.319 35.6195 45.3171 35.6198ZM84.462 30.1325C85.8775 29.8296 88.0727 29.3674 87.6982 30.0607C86.7799 30.1313 85.8654 30.2032 84.9547 30.2764C84.7904 30.2284 84.6261 30.1805 84.462 30.1325ZM228.716 24.3789C229.948 23.7878 231.04 24.3795 232.921 24.3409C232.913 24.4751 232.905 24.6093 232.897 24.7435C232.143 24.3894 230.109 24.5242 228.716 24.3789ZM10.0165 40.8818C9.77948 40.9964 9.54343 41.1111 9.30831 41.2259C10.5059 41.6534 10.5547 41.1133 11.7345 40.8772C11.8057 40.8631 11.8231 41.0295 11.8478 41.0241C12.1354 40.9607 12.3499 40.6995 12.6099 40.6355C13.1118 40.5125 13.5695 40.6028 14.4652 40.369C15.1588 40.1878 15.0898 39.8786 15.3376 39.825C15.5719 39.7736 17.7857 40.1242 18.9991 39.4477C21.3475 38.1262 10.6905 40.5894 10.0165 40.8818ZM2.87538 43.4918C3.11302 43.4254 3.35147 43.3591 3.59087 43.2928C2.73883 43.0326 4.2015 42.6835 5.29027 42.3874C5.12503 41.9466 2.90362 42.789 1.87994 42.9492C2.21139 43.1297 2.54326 43.3106 2.87538 43.4918ZM33.9169 34.9161C32.9379 35.0665 33.218 35.6054 33.2925 35.7674C33.5996 35.7046 33.9075 35.642 34.2162 35.5794C34.1165 35.3583 34.0167 35.1372 33.9169 34.9161ZM26.4858 36.2777C26.8699 36.598 29.0239 36.3076 30.0533 36.1246C30.0979 36.1153 29.7722 35.9616 30.4983 35.8292C30.713 35.7891 33.0282 36.1173 32.3681 35.3371C30.3802 35.6434 28.4152 35.9579 26.4887 36.277C26.4877 36.2773 26.4868 36.2775 26.4858 36.2777ZM24.4246 36.9756C24.8431 37.009 25.2628 37.0428 25.6837 37.0768C25.847 36.85 26.0109 36.6232 26.1755 36.3964C25.7148 36.4499 25.2559 36.5037 24.7988 36.5578C24.6738 36.697 24.549 36.8363 24.4246 36.9756ZM334.221 30.3708C334.099 30.5549 333.976 30.739 333.854 30.9231C333.468 30.9931 331.788 29.8917 332.379 29.8024C332.993 29.9913 333.607 30.1808 334.221 30.3708ZM341.892 31.0272C342.282 30.982 342.672 30.9371 343.063 30.8924C343.443 31.2888 343.822 31.6851 344.202 32.0818C342.316 32.035 340.268 32.0076 340.734 31.069C340.305 31.0076 339.876 30.9464 339.447 30.8856C339.751 31.3444 339.682 31.4711 338.524 31.5713C338.359 30.9697 337.158 31.0949 335.85 30.7869C336.819 30.8872 337.789 30.989 338.759 31.0923C338.773 30.9924 338.788 30.8924 338.802 30.7924C336.643 30.5257 339.409 30.2667 340.757 30.866C340.887 30.7487 341.017 30.6316 341.147 30.5144C341.395 30.6852 341.644 30.8561 341.892 31.0272ZM185.5 20.3455C185.771 20.2426 186.041 20.1398 186.313 20.0372C187.363 21.3556 185.223 20.1085 183.709 21.166C184.205 20.3672 181.892 20.4173 181.76 20.3657C182.024 20.0958 182.287 19.826 182.551 19.5562C183.533 19.8179 184.516 20.081 185.5 20.3455ZM193.105 19.4239C192.169 20.08 196.757 20.1351 198.31 20.0045C198.687 19.9716 199.362 19.615 199.634 19.6632C199.797 19.7984 199.957 19.9337 200.118 20.069C200.314 19.6074 203.293 20.1589 204.47 20.4249C204.584 20.258 204.697 20.0911 204.811 19.9242C205.24 19.997 205.67 20.0701 206.1 20.1435C206.048 19.9749 205.997 19.8062 205.945 19.6376C206.268 19.8443 206.592 20.0512 206.915 20.2582C208.193 20.5035 207.417 19.5755 208.377 19.8774C209.444 20.213 207.677 20.7274 207.705 21.0829C206.837 20.9765 204.869 20.7426 203.992 20.7215C203.488 20.7099 204.05 21.351 201.891 20.5959C201.414 20.7609 200.938 20.9262 200.462 21.0918C199.602 20.813 198.71 20.5349 197.831 20.2581C197.665 20.4923 197.498 20.7266 197.333 20.9608C197.238 20.9965 195.204 20.451 195.314 20.2751C194.488 20.7211 192.798 20.795 191.027 20.8172C190.857 20.6892 190.687 20.5612 190.516 20.4332C192.229 20.7101 191.061 20.298 191.573 20.0534C191.868 19.9123 192.772 19.6364 193.105 19.4239ZM322.413 28.3033C325.212 29.235 323.492 28.5383 326.599 28.9374C326.343 29.2108 326.087 29.4844 325.832 29.758C324.376 29.0096 321.822 29.0618 322.41 28.303C322.411 28.3031 322.412 28.3032 322.413 28.3033ZM352.502 33.5356C350.898 33.1021 351.789 32.76 349.743 32.2948C349.742 32.2947 349.741 32.2945 349.74 32.2944C350.815 32.4232 351.89 32.5539 352.966 32.6864C352.811 32.9694 352.657 33.2525 352.502 33.5356ZM256.672 22.7678C255.09 22.8011 255.427 22.585 253.953 22.9686C251.841 22.2678 253.653 22.4574 253.684 21.9381C254.165 22.1199 254.652 22.3024 255.127 22.4845C256.332 22.0715 255.232 21.7581 255.235 21.7115C255.236 21.7115 255.237 21.7116 255.238 21.7116C255.248 21.5558 255.212 21.5205 255.669 21.4542C256.004 21.8919 256.338 22.3298 256.672 22.7678ZM249.935 21.721C250.459 22.0969 250.677 22.5532 249.238 22.694C249.237 22.694 249.236 22.6939 249.235 22.6939C249.164 21.9162 247.762 22.4628 247.143 22.3777C246.984 22.2851 246.826 22.1925 246.667 22.0999C247.754 21.9718 248.844 21.8455 249.935 21.721ZM226.123 19.9299C226.089 20.7823 227.29 20.9045 225.568 21.6324C225.24 21.6061 224.911 21.5799 224.583 21.5539C224.374 21.3597 224.164 21.1656 223.954 20.9715C219.749 22.3872 218.579 19.7155 225.592 20.9232C225.593 20.9238 225.594 20.9244 225.595 20.9251C225.771 20.5933 225.947 20.2616 226.123 19.9299ZM233.412 20.2761C233.447 20.7257 233.481 21.1753 233.515 21.6249C234.476 20.5834 235.615 21.6625 237.452 20.9818C237.609 21.1251 237.766 21.2685 237.923 21.4119C238.626 21.1384 245.202 21.3765 243.742 21.9949C243.106 22.2635 241.777 21.7887 241.66 21.7924C241.265 21.8069 240.737 22.1665 240.062 22.1121C239.674 22.0802 238.876 21.5901 238.083 21.5549C236.309 21.4753 233.039 22.5511 230.775 21.3148C230.604 21.4432 230.432 21.5718 230.261 21.7003C228.552 21.5535 229.138 21.1472 227.529 21.5998C226.501 19.43 233.934 21.9464 232.437 20.1643C232.438 20.1643 232.439 20.1643 232.44 20.1644C232.764 20.2014 233.088 20.2387 233.412 20.2761ZM280.734 23.9111C280.87 23.5389 282.82 24.2996 282.429 23.3471C283.054 23.7215 283.684 24.0969 284.299 24.4716C284.286 24.5559 284.274 24.6402 284.261 24.7245C283.629 24.6011 282.98 24.4768 282.338 24.3537C282.324 24.488 282.31 24.6222 282.296 24.7565C281.37 24.1834 277.325 24.0569 277.41 24.5452C277.212 24.3263 277.014 24.1074 276.816 23.8886C274.85 24.2794 273.246 23.5654 271.121 23.9405C270.972 23.7614 270.824 23.5822 270.675 23.4032C270.56 23.5298 270.445 23.6564 270.329 23.783C269.571 23.7426 268.808 23.7026 268.038 23.6629C265.579 22.9371 270.488 22.5925 271.052 22.7185C271.129 22.7356 271.09 23.0831 271.57 23.175C272.42 23.3343 277.274 23.3727 278.755 23.7312C278.788 23.5013 278.82 23.2713 278.852 23.0414C279.479 23.3307 280.106 23.6206 280.734 23.9111ZM216.818 20.5659C216.703 20.799 216.588 21.0321 216.474 21.2653C214.601 20.9829 213.418 21.1639 213.916 20.3943C213.917 20.3943 213.918 20.3943 213.919 20.3944C214.884 20.4502 215.85 20.5073 216.818 20.5659ZM76.9568 27.2803C76.9463 26.8089 77.8232 26.5191 79.0354 26.7059C78.9959 26.8481 78.9566 26.9902 78.9173 27.1324C78.2589 26.813 77.5837 27.5985 75.7124 27.7485C75.6819 27.5145 75.6514 27.2805 75.6209 27.0466C76.0655 27.1242 76.5108 27.2021 76.9568 27.2803ZM218.445 20.5061C219.027 20.2431 220.618 21.1325 219.555 21.1442C218.742 21.153 218.133 20.6473 218.445 20.5061ZM358.997 34.1002C358.57 34.0812 358.145 34.0629 357.712 34.0436C357.524 33.8102 357.335 33.5768 357.146 33.3434C357.147 33.3436 357.148 33.3437 357.149 33.3439C357.768 33.5958 358.386 33.8482 358.997 34.1002ZM262.055 23.1593C260.613 23.0318 259.174 22.9074 257.738 22.786C257.732 22.6545 257.726 22.523 257.72 22.3914C259.13 22.9605 259.745 22.4857 260.084 22.4764C260.082 22.4763 260.081 22.4762 260.079 22.4761C261.167 22.4443 262.204 22.4381 263.241 22.353C262.845 22.6215 262.45 22.8903 262.055 23.1593ZM267.074 22.6848C266.762 23.5898 266.435 23.6721 264.258 22.8667C264.354 22.7593 264.45 22.6519 264.546 22.5445C265.693 22.6936 266.352 22.9555 266.183 22.4598C266.48 22.5347 266.777 22.6097 267.074 22.6848ZM244.422 21.5747C244.702 21.2938 246.797 21.7004 246.675 21.8429C246.625 21.8984 243.874 22.124 244.422 21.5747ZM61.0868 29.2985C61.5509 29.1595 62.0166 29.0208 62.4838 28.8824C61.8341 28.8785 61.1865 28.8751 60.5409 28.8724C60.7228 29.0144 60.9048 29.1564 61.0868 29.2985ZM55.5962 28.8274C55.2728 28.9993 56.5159 29.6395 54.5058 30.1832C55.9934 29.9583 57.495 29.7367 59.0104 29.5186C58.2803 29.4962 57.5529 29.4747 56.8281 29.454C56.9133 29.1985 56.9989 28.943 57.0845 28.6876C56.587 28.7338 56.0909 28.7804 55.5962 28.8274ZM54.0943 29.6885C54.7868 28.9324 50.5862 29.5803 50.2231 29.7245C50.1381 29.7576 49.8189 30.2981 49.6741 30.4275C50.3102 30.319 50.9275 30.2148 51.5581 30.1094C51.3728 30.2935 51.1879 30.4777 51.0036 30.6618C51.7452 30.5887 52.4902 30.5164 53.2386 30.445C52.8976 30.3479 52.5569 30.251 52.2166 30.1543C52.8397 29.9985 53.4657 29.8432 54.0943 29.6885ZM71.0965 27.2936C70.5684 27.3819 70.0418 27.4705 69.5169 27.5596C69.5896 27.3112 69.6626 27.0629 69.7358 26.8145C70.052 26.7707 70.3688 26.727 70.6861 26.6834C70.8229 26.8868 70.9598 27.0902 71.0965 27.2936ZM60.1614 28.5726C61.0976 29.5777 62.8266 26.804 60.5111 28.0861C60.2786 28.2163 60.0722 28.4753 60.1614 28.5726ZM48.6576 30.1309C46.8389 29.6068 47.5305 31.3418 49.0221 30.5397C49.0971 30.4978 48.7941 30.1694 48.6576 30.1309ZM36.2515 32.3969C36.1198 32.4295 35.9992 33.0554 34.6268 32.7558C34.4319 32.8637 34.2374 32.9717 34.0433 33.0797C34.5707 33.2489 38.8136 32.5841 38.1246 32.1229C37.4731 32.2395 36.9141 32.2478 36.2515 32.3969ZM39.962 29.4506C40.6076 29.3455 41.2209 29.2476 41.8547 29.147C41.6815 29.3677 41.5089 29.5884 41.3368 29.8091C41.6534 29.8014 41.9707 29.794 42.2886 29.7866C42.7583 29.3747 43.2309 28.9631 43.7065 28.5516C42.3126 28.7527 40.973 28.949 39.5646 29.1637C39.6971 29.2593 39.8295 29.3549 39.962 29.4506ZM56.8053 26.0702C55.5988 26.497 54.0436 26.4956 52.0691 26.864C52.0683 26.8648 52.0674 26.8655 52.0665 26.8662C51.9682 26.8854 51.835 27.1658 51.5197 27.2288C51.2796 27.2707 45.8076 27.9323 46.3057 28.2883C48.463 28.301 49.1802 27.5838 49.8244 28.4475C49.8899 28.2309 49.9556 28.0143 50.0214 27.7977C51.9353 27.1176 52.624 27.7157 53.7857 27.7853C53.7566 27.6354 53.7276 27.4856 53.6985 27.3357C54.4461 27.1978 55.1973 27.0607 55.9521 26.9245C55.8612 27.0407 55.7704 27.1569 55.6797 27.2731C55.9472 27.2302 56.215 27.1874 56.4833 27.1447C57.0655 26.5941 57.8833 26.3587 56.8053 26.0702ZM37.0946 30.2564C36.2516 29.2347 30.8029 31.1311 28.0832 31.4744C29.5915 31.8636 31.6725 30.9396 33.1128 30.6415C35.9673 30.0536 34.0759 30.8693 34.5974 30.9552C34.8532 30.9977 36.3433 29.9462 37.0946 30.2564ZM61.3311 25.5749C59.8988 25.8863 59.0879 25.7418 57.8613 26.3637C57.981 26.4305 58.1009 26.4973 58.2206 26.5641C58.6798 26.4114 62.0723 25.6475 61.3311 25.5749ZM24.3651 32.5954C27.0064 31.5859 25.8828 32.9076 27.1486 31.8282C26.1909 31.984 25.2411 32.1412 24.2993 32.2998C24.3212 32.3983 24.3431 32.4968 24.3651 32.5954ZM221.823 16.2459C223.026 16.2553 224.38 16.0874 225.088 16.5478C224.265 16.5881 223.444 16.6295 222.624 16.6718C222.357 16.5298 222.09 16.3878 221.823 16.2459ZM187.584 11.5139C187.857 11.4083 188.94 11.715 189.054 11.7149C189.266 11.7146 189.208 11.5625 189.211 11.5228C190.599 11.549 189.319 12.022 190.346 12.1241C190.521 12.1404 192.94 11.9091 193.928 11.9323C195.447 11.9665 196.97 11.9453 197.54 11.9574C198.504 11.9769 200.287 12.3454 201.842 12.3808C202.486 12.3948 202.715 12.114 203.364 12.129C207.525 12.2196 215.795 12.7784 219.479 12.7082C220.396 12.6888 221.282 12.3434 221.767 12.3881C222.146 12.5351 222.525 12.6822 222.904 12.8295C224.121 11.6463 224.483 12.744 225.753 12.9002C226.56 12.9993 226.952 12.6513 227.061 12.6559C227.775 12.6879 228.119 12.8725 228.677 12.9213C229.304 12.9754 230.214 12.8464 230.438 12.8844C230.576 12.9099 230.114 13.3713 232.559 13.4587C235.052 13.5489 237.524 13.6053 240.08 13.7029C239.16 15.1124 238.475 14.0866 237.437 13.9873C237.158 13.9607 237.325 14.1987 237.083 14.1778C236.398 14.1198 235.097 13.8374 234.529 13.8688C233.916 13.9025 234.102 14.4446 233.336 14.2161C233.298 14.2043 233.43 13.989 233.25 13.9447C231.435 13.5066 230.821 13.866 228.519 13.793C227.003 13.7348 217.638 13.2346 217.334 13.3803C215.644 14.1024 225.457 14.3847 226.629 14.3764C227.035 14.3689 226.619 14.1109 226.989 14.077C227.147 14.0638 228.513 14.5759 229.884 14.6661C231.54 14.7736 234.899 14.5932 236.493 14.6753C250.129 15.3685 263.634 15.936 277.222 17.0406C277.512 17.0644 277.871 17.3727 278.818 17.4515C296.456 18.9127 314.731 20.6696 332.491 23.1888C336.352 23.7358 340.16 24.5321 344.11 24.8972C344.562 25.1683 345.015 25.4397 345.468 25.7114C344.265 25.3707 341.916 25.4962 341.709 25.4738C341.634 25.4652 341.195 25.1708 340.434 25.075C339.364 24.9396 338.869 25.0709 338.781 25.0585C338.51 25.0211 338.717 24.8369 338.458 24.8016C336.525 24.5402 335.04 24.2759 333.272 24.0348C331.275 23.7635 330.213 24.0203 328.818 23.4019C328.631 23.5474 328.443 23.6927 328.255 23.8381C327.252 22.968 320.732 22.2231 318.105 21.9515C317.275 21.864 317.385 22.1754 317.107 22.1421C316.929 22.1209 317.044 21.7427 314.871 21.5633C313.778 21.4741 313.456 21.7212 312.906 21.6482C312.607 21.6083 312.688 21.3359 312.257 21.2864C309.768 21.0007 307.731 20.8648 305.299 20.6533C304.616 20.5936 304.583 20.8252 304.431 20.8058C303.871 20.7351 302.936 20.2369 301.511 20.0886C299.185 19.8443 294.448 19.3716 292.508 19.3806C292.222 19.3816 291.961 19.6381 291.753 19.6142C291.439 19.5769 291.343 19.2742 291.288 19.2673C290.234 19.1623 290.843 19.493 290.143 19.3608C289.767 19.2896 289.401 18.9203 288.521 18.801C287.36 18.6439 287.554 19.0595 287.071 18.9755C287.02 18.9647 287.03 18.6891 286.552 18.6367C284.753 18.4403 282.099 18.1439 280.371 17.9991C279.874 17.957 279.49 18.1104 278.798 18.0559C277.394 17.937 269.532 17.2043 268.865 17.269C268.795 17.2751 269.473 17.7322 268.346 17.6368C268.031 17.4441 267.716 17.2516 267.401 17.0592C266.834 17.2893 266.268 17.5199 265.703 17.751C265.788 16.8187 262.586 16.451 262.554 17.4081C262.201 17.4229 261.848 17.4378 261.495 17.4529C260.81 16.7451 260.308 16.9555 258.925 16.477C258.693 16.6649 258.46 16.8528 258.228 17.0408C258.182 16.9026 258.135 16.7643 258.089 16.6261C257.292 17.3079 256.109 16.4982 255.96 16.485C255.389 16.4334 254.942 16.5924 254.669 16.5698C253.652 16.4882 251.468 16.1029 250.278 16.155C250.222 16.158 250.259 16.4733 249.92 16.4928C249.309 16.5284 249.275 16.0678 248.437 16.5602C248.281 16.4164 248.125 16.2727 247.969 16.129C247.792 16.1893 247.615 16.2497 247.438 16.3101C246.418 16.2191 245.4 16.1297 244.383 16.0419C245.282 16.6183 244.201 16.8583 243.215 16.3918C242.882 16.2337 243.2 15.9269 243.089 15.8725C242.947 15.7969 238.336 15.7414 238.019 15.9381C237.805 15.8268 237.592 15.7156 237.378 15.6045C237.259 15.8024 237.14 16.0004 237.02 16.1984C236.903 16.1221 236.786 16.0459 236.669 15.9697C235.455 16.273 232.389 15.326 231.826 15.3698C231.525 15.3927 231.76 16.2674 230.33 16.1243C230.289 15.8848 230.248 15.6454 230.208 15.406C229.88 15.3596 229.553 15.3133 229.227 15.2672C228.61 15.2655 227.701 15.6453 227.662 15.9259C227.476 15.7502 227.29 15.5745 227.104 15.3989C226.562 15.9302 223.783 15.6422 222.678 15.2607C222.346 15.4167 222.015 15.5728 221.684 15.7291C221.251 15.5142 220.819 15.2996 220.387 15.0853C219.374 14.9958 220.436 15.3616 220.219 15.3835C219.76 15.4277 217.449 14.7987 217.584 15.5092C217.267 15.5028 216.951 15.4965 216.634 15.4903C216.477 15.2844 216.319 15.0786 216.161 14.8727C215.599 15.5555 214.677 15.2863 212.734 15.4986C212.574 15.335 212.413 15.1713 212.253 15.0077C211.645 15.2228 211.038 15.4385 210.433 15.6547C210.314 15.3871 210.196 15.1195 210.077 14.8519C209.816 14.8089 209.556 14.7659 209.295 14.7231C208.753 15.3076 207.812 14.6493 207.324 14.8867C206.612 15.2332 207.151 15.6673 208.461 15.7721C208.354 16.2015 204.458 15.9423 203.565 15.9016C203.625 15.8179 203.685 15.7341 203.746 15.6504C204.661 15.7289 205.578 15.8087 206.497 15.8897C207.284 14.8132 204.781 15.0667 203.642 14.913C203.538 14.8983 202.95 14.4781 201.8 14.504C201.351 14.514 199.623 15.1002 199.278 15.1312C196.566 15.3857 198.562 14.5381 195.912 15.2774C196.466 14.7022 194.944 15.1737 193.369 15.0578C193.1 15.0373 190.831 14.5656 190.679 14.554C189.725 14.479 190.763 14.9894 189.384 14.8575C189.218 14.7233 189.052 14.5891 188.886 14.455C188.566 14.4555 188.245 14.4562 187.925 14.457C185.994 15.6603 185.516 14.7819 184.817 14.6723C184.534 14.6282 184.9 14.9385 184.166 14.8769C183.89 14.854 183.582 14.5959 182.841 14.5832C180.52 14.5449 179.75 15.6661 177.618 14.5339C177.295 14.7059 176.973 14.878 176.651 15.0503C176.429 14.852 176.208 14.6538 175.986 14.4556C174.323 15.0643 174.918 14.4574 174.314 14.4739C172.731 14.5158 169.402 14.6961 169.132 15.1848C167.718 14.1076 166.091 15.3952 165.547 15.3658C165.22 15.2394 164.893 15.1132 164.566 14.9872C164.19 15.1319 163.814 15.2769 163.439 15.422C163.593 14.3305 161.661 15.4528 161.475 15.4751C161.275 15.4961 158.197 15.2677 157.064 15.313C155.928 15.3565 153.972 15.7216 153.799 15.7289C153.6 15.736 151.671 15.5123 150.181 15.5763C148.918 15.6216 141.07 16.4058 141.559 15.9032C142.061 15.7439 142.78 15.5924 143.406 15.4995C145.392 15.1942 156.721 14.4941 159.703 14.3441C165.496 14.0119 171.728 13.9056 177.542 13.7266C177.887 13.7161 177.936 13.4339 178.233 13.424C178.683 13.4102 179.831 13.6794 180.276 13.669C181.938 13.6274 183.97 13.5674 184.867 13.5556C186.886 13.5304 188.209 13.3578 189.714 13.3288C190.182 13.3198 192.556 13.6693 194.192 13.5285C194.489 13.4503 194.786 13.3722 195.083 13.2943C194.239 13.1975 192.032 12.9526 191.011 12.9253C189.491 12.8853 188.702 13.1158 188.142 13.113C187.679 13.1104 185.271 12.8592 184.161 12.8608C183.819 12.8609 183.75 13.1567 183.458 13.1577C181.868 13.1612 179.784 13.1735 178.413 12.9006C178.971 12.9874 175.491 13.2138 175.311 13.217C174.999 13.2216 174.657 12.9503 174.021 12.9606C172.803 12.981 172.952 13.5562 171.393 13.0068C171.012 13.1824 170.631 13.3583 170.251 13.5344C170.208 12.7626 165.402 13.9163 164.019 13.0199C163.972 12.9109 170.234 12.4651 170.763 12.4447C173.924 12.2888 178.427 12.4146 181.465 12.2543C182.372 12.2044 185.238 11.718 185.457 11.7266C185.807 11.738 185.492 12.0074 185.643 12.0162C188.713 12.2027 187.176 11.6713 187.584 11.5139ZM53.5077 26.0876C54.4151 25.9069 55.328 25.7274 56.2462 25.5492C56.1525 25.393 56.059 25.2367 55.9654 25.0805C55.5528 25.2128 55.1416 25.3454 54.7315 25.4783C54.3921 25.4308 54.0532 25.3836 53.7148 25.3365C53.6455 25.5869 53.5766 25.8373 53.5077 26.0876ZM51.1523 25.7604C50.3538 25.8081 50.376 26.1663 50.1985 26.2139C49.6665 26.3576 49.1925 26.2923 48.6453 26.3915C49.4239 27.1163 50.6086 26.5216 51.1523 25.7604ZM67.5442 22.927C67.367 22.9929 66.2812 24.0666 64.7914 23.4262C63.8057 23.8417 62.8271 24.2586 61.8556 24.6768C63.5109 24.011 65.9836 24.0856 66.8399 23.948C67.1647 23.8956 67.1877 23.6098 67.4479 23.5683C68.9728 23.3299 70.4456 23.7685 70.4796 22.8284C69.1347 23.2841 67.7741 22.8442 67.5442 22.927ZM58.6536 24.5757C58.442 24.8045 58.2308 25.0334 58.0203 25.2623C58.9047 25.1242 59.7226 24.9982 60.5747 24.8685C60.3163 24.7096 60.0579 24.5507 59.7996 24.392C59.4168 24.453 59.0373 24.5139 58.6536 24.5757ZM124.924 16.7233C124.391 16.7617 123.875 16.7995 123.33 16.8398C123.352 16.6967 123.964 16.6549 124.178 16.5447C124.177 16.5447 124.176 16.5448 124.175 16.5449C124.416 16.4204 124.297 16.2463 124.744 16.1354C124.804 16.3314 124.864 16.5273 124.924 16.7233ZM346.196 25.2065C347.08 25.3177 355.289 26.5703 354.512 26.9768C354.119 27.1749 351.346 26.5204 350.519 26.4001C349.402 26.2345 346.316 26.3375 346.196 25.2065ZM360.748 27.3555C360.817 27.8835 355.666 27.1442 355.178 26.9809C355.296 26.9253 355.485 26.7902 355.633 26.776C356.351 26.7082 359.635 27.3159 360.748 27.3555ZM154.818 13.701C154.408 13.9752 154 14.2496 153.592 14.5243C153.689 14.183 153.787 13.8417 153.884 13.5004C154.195 13.5671 154.506 13.634 154.818 13.701ZM195.419 13.4525C202.433 13.4691 209.365 13.5556 216.338 13.7111C215.731 13.5558 215.125 13.401 214.519 13.2468C208.471 13.1569 202.13 13.21 196.286 12.9621C195.997 13.1255 195.708 13.2889 195.419 13.4525ZM69.2788 21.1504C71.0236 20.9045 72.5239 20.9523 74.403 20.3086C72.5137 20.171 71.6884 20.8783 69.8487 20.5618C69.8477 20.5619 69.8468 20.5621 69.8457 20.5622C69.6564 20.7582 69.4673 20.9543 69.2788 21.1504ZM108.865 16.644C108.3 16.4559 107.736 16.2682 107.172 16.081C107.825 16.0235 108.48 15.9666 109.136 15.9103C109.045 16.1549 108.955 16.3995 108.865 16.644ZM256.286 14.1835C258.105 14.8097 262.933 14.1953 264.413 14.9224C264.508 14.9698 263.588 15.1674 265.011 15.7745C263.916 15.5935 263.147 15.4351 263.092 15.0322C262.755 15.1445 262.419 15.2569 262.084 15.3695C261.548 15.231 261.014 15.0929 260.479 14.9552C260.512 15.3547 260.47 15.3305 259.657 15.0053C259.272 15.0807 258.886 15.1564 258.502 15.2322C258.352 15.0544 258.203 14.8766 258.053 14.6989C257.71 14.9122 257.368 15.1258 257.026 15.3395C255.768 15.0055 256.572 14.6002 256.286 14.1835ZM249.725 13.893C250.031 13.8146 258.706 14.624 254.712 15.1735C253.685 15.0859 252.66 14.9999 251.636 14.9154C252.561 13.6574 249.699 14.6655 249.47 14.6811C248.367 14.7475 246.99 14.3615 246.197 14.3359C245.514 14.3142 245.098 14.5278 244.619 14.4972C242.989 14.3924 240.423 14.2607 240.08 13.7029C241.372 13.7524 242.64 13.8084 243.961 13.8889C245.354 13.9742 246.608 13.526 249.2 14.3716C249.855 14.3326 249.646 13.9109 249.725 13.893ZM105.546 16.2806C105.657 16.8155 102.37 16.987 102.332 16.7762C102.313 16.6513 103.378 16.5549 103.526 16.4934C103.527 16.4933 103.528 16.4932 103.529 16.4931C103.59 16.4664 103.249 16.2888 103.745 16.1849C104.344 16.2163 104.945 16.2482 105.546 16.2806ZM333.565 22.1927C334.04 21.9367 344.167 23.4699 344.445 23.6702C344.52 23.7221 344.388 23.8383 344.409 23.9194C342.105 23.1476 338.665 23.1753 336.422 22.901C335.797 22.8239 336.013 22.6354 335.978 22.6265C335.976 22.6263 335.975 22.6261 335.974 22.6259C335.619 22.5762 333.949 22.8818 333.565 22.1927ZM267.67 15.4034C267.228 15.4566 266.787 15.5101 266.347 15.5638C266.248 15.3879 266.15 15.212 266.052 15.0361C266.053 15.0362 266.054 15.0363 266.055 15.0363C266.593 15.1583 267.131 15.2806 267.67 15.4034ZM282.721 16.0482C282.605 16.1571 282.489 16.2661 282.373 16.375C281.276 16.2967 280.182 16.2201 279.088 16.1454C279.193 16.2212 279.297 16.2971 279.402 16.373C277.736 16.4133 277.088 15.943 276.206 15.9316C276.207 15.9317 276.208 15.9318 276.209 15.9319C276.114 15.9312 275.98 16.1682 275.628 16.1483C274.821 16.1022 272.511 16.0137 272.253 15.7451C271.704 15.1691 276.321 15.7836 277.192 15.8333C277.585 15.8542 278.074 15.6776 278.313 15.6923C278.575 15.7092 278.907 16.0295 279.545 16.074C279.731 16.0861 281.829 15.9193 282.721 16.0482ZM301.905 18.2426C301.542 18.4733 300.872 18.1439 300.611 18.1608C300.549 18.1647 301.002 18.4366 300.418 18.4435C300.27 18.2748 300.123 18.1062 299.975 17.9376C300.618 18.0386 301.261 18.1403 301.905 18.2426ZM100.02 16.5386C100.126 16.4703 101.865 16.3252 101.956 16.3536C103.05 16.7394 99.4213 17.0322 100.02 16.5386ZM55.438 21.6199C56.0934 20.7826 46.7351 23.0375 45.7382 23.1961C45.8596 23.6262 48.0846 22.7842 46.9834 23.5966C48.1102 23.0566 51.2136 22.7135 51.9435 22.4959C52.3807 22.3639 52.4316 21.9656 52.4974 21.9424C52.7536 21.8552 55.1878 21.9116 55.438 21.6199ZM37.9229 24.9377C38.8312 24.6782 39.7232 24.4243 40.5952 24.1765C39.5444 24.3202 38.444 24.4765 37.3513 24.6348C37.5417 24.7357 37.7323 24.8367 37.9229 24.9377ZM36.7327 24.9602C36.675 24.5295 33.6557 25.456 32.8446 25.5204C33.889 26.0595 35.2654 25.08 36.7327 24.9602ZM88.168 16.6522C89.5935 16.2063 90.3488 17.4481 88.5291 17.0726C88.4735 17.0597 88.1091 16.674 88.168 16.6522ZM256.843 12.3623C257.086 12.3683 260.158 12.1378 260.322 12.3615C260.836 13.0709 258.853 12.6699 258.169 12.8819C257.065 13.2255 258.627 13.6637 256.014 13.2511C256.113 13.3925 256.212 13.5339 256.311 13.6753C254.773 13.625 255.327 12.7226 255.057 12.5855C254.974 12.5437 253.995 12.5634 253.823 12.4934C251.673 11.61 256.632 12.3528 256.843 12.3623ZM123.742 13.3607C126.553 12.7726 125.368 13.4339 128.295 13.2088C128.407 13.4967 124.124 13.5925 123.742 13.3607ZM228.866 11.5115C231.814 11.7362 234.27 11.4474 237.024 12.0902C236.799 12.8751 228.087 11.6834 228.866 11.5115ZM367.791 24.8182C356.186 24.3095 343.035 21.8467 330.859 20.2197C329.533 20.0426 329.37 20.3428 328.889 20.2452C328.576 20.1817 328.664 19.9346 328.243 19.8788C313.098 17.8727 298.563 15.9695 284.005 14.8418C283.077 14.768 278.551 14.9359 277.666 14.033C276.994 13.3454 280.169 14.1004 280.707 14.1417C281.111 14.1719 281.153 13.8785 281.422 13.9004C281.708 13.9238 281.455 14.1051 281.786 14.1366C283.188 14.2711 284.737 14.328 285.987 14.4576C298.342 15.7335 310.459 16.9833 322.711 18.4781C324.201 18.6608 323.925 18.3878 324 18.3961C324.001 18.3968 324.002 18.3975 324.003 18.3982C332.014 19.3795 341.026 21.1533 349.46 22.2175C355.406 22.9456 361.379 23.7296 367.306 24.5582C367.467 24.6449 367.629 24.7315 367.791 24.8182ZM250.444 12.8189C251.244 11.9691 251.357 12.8762 254.07 12.6723C254.28 12.8378 254.49 13.0033 254.7 13.1689C253.277 13.0492 251.857 12.9324 250.439 12.8186C250.441 12.8187 250.442 12.8188 250.444 12.8189ZM268.158 13.6417C268.722 12.4686 274.601 13.7686 277.319 13.7643C277.762 14.4079 273.873 13.8211 272.949 13.8156C272.482 13.8106 269.998 14.2455 268.123 13.7628C268.134 13.7224 268.146 13.6821 268.158 13.6417ZM65.224 18.3432C65.6654 18.3154 66.1076 18.2879 66.5509 18.2607C65.4729 18.5485 64.4018 18.8381 63.3378 19.1293C65.0475 18.7914 66.807 18.4534 68.5176 18.1291C68.1664 17.9248 67.8142 17.7208 67.449 17.5189C66.7037 17.7929 65.962 18.0677 65.224 18.3432ZM70.8503 17.6886C67.8379 18.0041 71.0562 18.241 71.7711 17.8454C72.1979 17.6077 71.1582 17.657 70.8503 17.6886ZM78.7082 16.2349C77.2369 15.9724 74.3345 16.316 75.4751 17.0553C76.9556 16.4505 78.0327 16.6582 80.1772 16.157C79.8362 16.029 79.4955 15.9011 79.155 15.7734C79.1534 15.7735 79.152 15.7737 79.1505 15.7739C79.0028 15.9276 78.8554 16.0812 78.7082 16.2349ZM69.4076 17.3486C67.5108 18.1167 73.182 17.1714 71.3466 17.0851C71.2591 17.081 69.4808 17.3185 69.4076 17.3486ZM355.307 21.8757C355.501 22.1964 353.978 21.9543 353.469 21.8957C351.26 21.6414 348.467 21.0946 346.186 20.8C346.371 20.7317 346.556 20.6635 346.742 20.5952C349.591 21.0093 352.446 21.436 355.307 21.8757ZM339.026 19.7749C337.453 19.5547 335.882 19.3384 334.313 19.1259C334.167 19.1061 333.514 18.7693 334.032 18.7787C335.695 19.1065 337.36 19.4385 339.026 19.7749ZM240.56 10.5808C241.79 10.4776 238.307 9.48923 238.426 10.3797C239.137 10.446 239.848 10.513 240.56 10.5808ZM229.257 9.7533C230.013 9.86503 230.769 9.9776 231.525 10.091C231.53 9.98958 231.535 9.88816 231.54 9.78674C230.778 9.77474 230.017 9.7636 229.257 9.7533ZM361.509 22.6555C360.662 22.8701 358.762 22.5113 357.569 22.3303C358.435 22.1646 360.372 22.6224 361.509 22.6555ZM258.764 11.2403C258.649 11.4678 263.473 11.7287 261.832 11.2018C260.808 11.2131 259.785 11.226 258.764 11.2403ZM268.604 11.5664C267.567 11.4383 266.756 11.462 266.943 11.8483C267.495 11.8721 268.048 11.8964 268.601 11.9211C268.602 11.8029 268.603 11.6846 268.604 11.5664ZM83.9802 14.887C85.7229 14.717 87.4918 14.5502 89.2478 14.3908C89.1732 14.2968 89.0983 14.2029 89.0237 14.109C87.3194 14.2637 85.6217 14.4233 83.939 14.5869C83.9527 14.6869 83.9664 14.7869 83.9802 14.887ZM362.629 21.9132C363.801 22.1713 364.975 22.4316 366.149 22.6941C364.952 22.564 363.756 22.4362 362.561 22.3107C362.583 22.1775 362.604 22.0443 362.626 21.911C362.627 21.9118 362.628 21.9125 362.629 21.9132ZM60.0098 16.7602C65.2169 15.504 58.4085 16.0097 57.1313 16.9201C57.1296 16.9198 57.1281 16.9194 57.1265 16.9191C57.0113 16.9993 57.3204 17.2522 57.1317 17.403C57.6699 17.1832 58.1617 16.9713 58.6781 16.7562C59.1893 16.8472 59.7013 16.9385 60.2145 17.0303C60.3654 16.9411 60.5165 16.8518 60.6678 16.7627C60.4482 16.7618 60.2289 16.761 60.0098 16.7602ZM38.6359 20.102C33.7854 21.0813 38.9343 20.8493 41.1216 19.8556C41.0784 19.7245 39.065 20.0151 38.6359 20.102ZM51.1915 18.0497C51.9549 17.9918 52.7215 17.9349 53.4913 17.8789C53.5747 17.7792 53.6581 17.6795 53.7417 17.5798C53.1447 17.5904 52.5494 17.6016 51.9561 17.6132C51.7006 17.7586 51.4457 17.9041 51.1915 18.0497ZM75.9787 13.1104C77.2081 12.861 78.8996 13.5982 74.9006 13.8573C74.8897 13.7564 74.8787 13.6554 74.8677 13.5544C75.0275 13.5501 75.503 13.5852 75.5275 13.5744C75.597 13.54 75.468 13.2145 75.9787 13.1104ZM29.2402 19.2245C29.101 19.2141 28.8077 18.1792 27.5862 19.5661C27.1361 19.5914 26.6875 19.617 26.24 19.643C26.1771 19.8976 26.1142 20.1522 26.0519 20.4067C27.6885 19.872 27.9719 20.3031 28.0947 20.2873C28.6656 20.214 28.1996 20.0602 28.562 19.9814C29.5048 19.7762 31.5687 19.5262 30.5009 19.0278C30.1132 18.8502 29.3815 19.2347 29.2402 19.2245ZM32.3355 17.9762C32.1518 18.1039 32.8612 18.2823 32.7265 18.3993C32.6054 18.5011 30.6807 19.214 31.3236 19.6247C31.6444 19.5372 31.9663 19.4498 32.2889 19.3626C32.3713 19.1983 32.454 19.034 32.5367 18.8697C32.8802 18.9378 33.2243 19.006 33.5688 19.0745C34.0359 18.6177 35.0977 17.9381 33.6771 17.919C34.1838 17.8505 34.6922 17.7825 35.2024 17.7149C35.4962 17.8326 35.7902 17.9504 36.0845 18.0684C35.898 17.8383 35.7114 17.6082 35.5247 17.3782C34.4535 17.5758 33.3904 17.7751 32.3355 17.9762ZM16.8835 21.4175C16.9753 21.5347 17.0669 21.6519 17.1585 21.7691C15.2575 21.9532 12.4441 22.542 14.2324 22.9787C16.6682 22.462 19.2601 21.9333 21.709 21.4596C21.8485 21.3245 21.9883 21.1893 22.1285 21.0542C20.393 21.8422 20.612 20.0868 19.0741 20.9266C18.8176 21.0689 19.7425 21.4523 17.9349 21.4871C17.9655 21.3409 17.9962 21.1946 18.0269 21.0483C17.6443 21.1712 17.2632 21.2942 16.8835 21.4175ZM1.25598 25.6297C4.34805 24.5678 0.743862 25.055 0.289158 25.6132C0.290115 25.6129 0.291072 25.6126 0.292088 25.6123C-0.970562 27.1351 2.25572 25.6587 2.4785 25.6091C2.75421 25.5437 3.6366 26.1301 4.82427 24.5995C3.65811 24.9296 2.42826 25.2838 1.25598 25.6297ZM11.4221 22.7378C11.1475 22.779 11.3453 22.9397 11.2288 22.9656C11.2279 22.9659 11.2268 22.9661 11.2258 22.9664C9.49367 23.3465 5.50445 24.2018 5.2667 24.9512C6.45609 24.6765 12.0676 23.3941 12.3189 22.8821C12.029 22.8315 11.7206 22.7857 11.4221 22.7378ZM23.2945 20.469C24.2267 19.8291 21.91 20.2782 21.3597 20.6049C21.2569 20.6717 22.3301 21.1315 23.2945 20.469ZM102.778 7.52474C105.087 7.56982 102.108 8.10009 103.184 8.40331C102.745 8.40952 102.306 8.41602 101.869 8.42278C102.171 8.12331 102.474 7.82396 102.778 7.52474ZM207.688 2.94758C208.227 2.9091 207.968 3.14934 208.015 3.15371C208.368 3.15275 208.705 2.95941 208.84 2.98283C211.343 3.42981 209.67 3.60506 209.644 3.65222C209.586 3.89306 210.24 4.18789 209.322 4.44772C208.769 4.35214 208.217 4.25701 207.665 4.16231C207.389 4.29223 207.112 4.42225 206.836 4.55239C205.743 4.24727 207.18 4.19007 207.349 3.81029C207.415 3.66091 206.383 3.46436 207.688 2.94758ZM106.818 6.34806C107.23 6.73839 108.193 7.19282 107.33 7.69622C107.329 7.6963 107.327 7.6964 107.327 7.69648C107.167 7.7887 106.493 7.89082 106.296 8.01842C104.767 7.58618 105.278 6.95261 106.818 6.34806ZM197.785 2.07198C196.886 2.16498 195.989 2.25914 195.094 2.35446C195.108 2.60925 195.122 2.86404 195.136 3.11883C195.615 3.05225 196.095 2.986 196.574 2.92009C196.742 3.03726 196.909 3.15448 197.077 3.27173C196.48 3.55855 195.883 3.84588 195.288 4.13373C194.574 4.02895 193.86 3.92492 193.146 3.82162C193.475 3.68803 193.803 3.55458 194.132 3.4213C192.387 3.26772 192.765 3.88823 191.325 4.12334C190.832 3.88704 190.34 3.65109 189.847 3.41549C189.135 3.65311 188.424 3.89146 187.715 4.13054C186.522 4.02335 186.417 3.84352 187.218 3.57034C186.627 3.26334 185.972 3.75184 185.244 3.62968C185.184 3.61983 185.295 3.3283 185.242 3.32507C181.492 3.15083 181.704 3.91834 181.107 3.9551C180.687 3.98087 179.007 3.48288 178.979 3.30768C178.944 3.07189 182.416 2.09605 176.963 2.13664C179.768 1.45242 183.001 2.08585 180.927 3.05168C181.818 2.94577 185.783 3.15713 186.038 3.12935C186.407 3.08484 186.278 2.72565 186.732 2.71452C187.002 2.70878 187.713 3.52676 189.847 2.80626C190.12 2.94106 190.393 3.07597 190.666 3.21099C190.922 3.10008 191.178 2.98927 191.435 2.87855C190.907 2.48252 190.38 2.0869 189.852 1.69168C191.94 2.12006 193.684 1.31763 194.962 2.00349C196.069 1.92904 196.609 1.85426 196.134 1.50372C196.467 1.50549 196.8 1.50742 197.134 1.50951C197.351 1.69693 197.568 1.88442 197.785 2.07198ZM113.634 6.38808C114.689 5.90797 115.149 6.72735 114.983 6.78858C114.049 7.12745 113.086 6.63804 113.634 6.38808ZM205.692 3.3695C204.481 3.57158 203.274 3.77578 202.07 3.98208C202.073 3.7127 202.076 3.44332 202.079 3.17393C203.281 3.23703 204.485 3.30221 205.692 3.3695ZM102.389 6.95252C102.297 7.16379 102.206 7.37507 102.114 7.58636C100.73 6.97455 99.5531 8.1508 98.8572 7.99896C98.7093 7.96538 98.9641 7.58239 99.2305 7.47984C99.4076 7.41358 102.144 6.90564 102.389 6.95252ZM47.5459 14.1392C48.0498 14.1909 48.555 14.2429 49.0611 14.2955C48.9968 14.0759 48.9323 13.8564 48.8679 13.6369C48.6219 13.6354 48.3761 13.634 48.1306 13.6327C47.9353 13.8015 47.7404 13.9703 47.5459 14.1392ZM53.1403 13.5783C54.0145 13.419 54.8932 13.261 55.7765 13.1041C52.3747 13.4311 55.1207 12.8925 53.0353 12.9264C53.0703 13.1437 53.1053 13.361 53.1403 13.5783ZM61.9158 11.762C61.7885 11.6437 61.6612 11.5254 61.5339 11.4072C60.6593 11.5362 59.7888 11.6664 58.9223 11.7978C59.3997 11.2493 59.8799 10.7011 60.3629 10.1532C60.6827 10.1044 61.0033 10.0556 61.3242 10.0071C61.5216 10.592 61.7188 11.177 61.9158 11.762ZM231.501 2.58876C232.031 2.60061 233.863 3.08572 233.777 3.2341C233.002 3.38874 232.228 3.54425 231.455 3.70063C231.461 3.43071 231.468 3.16079 231.475 2.89086C231.362 3.02099 231.248 3.15114 231.135 3.28131C230.703 3.16377 230.272 3.0465 229.84 2.9295C229.612 3.15716 229.385 3.3849 229.157 3.61271C228.947 3.33547 228.737 3.0583 228.526 2.78119C230.643 2.37983 230.555 2.85581 230.992 2.86705C231.214 2.87323 231.361 2.7116 231.443 2.63059C231.462 2.61664 231.481 2.6027 231.501 2.58876ZM204.881 1.63944C207.402 1.60729 208.836 2.34344 210.681 1.78366C209.471 3.02053 201.947 1.5999 199.287 2.64159C199.009 2.4362 198.732 2.23092 198.455 2.02575C199.924 2.21774 200.914 1.80955 201.621 1.75677C202.18 1.71495 202.12 1.92722 202.162 1.92461C202.164 1.92464 202.166 1.92466 202.168 1.92468C203.479 1.85205 203.888 1.65258 204.881 1.63944ZM100.443 6.13785C101.081 5.75464 102.26 5.67696 102.316 6.14223C101.674 6.33798 101.034 6.53432 100.396 6.73124C100.519 6.59914 100.334 6.20334 100.443 6.13785ZM62.747 10.3182C63.2529 10.0902 64.5266 10.0424 64.0432 10.5204C63.9556 10.6052 62.6699 10.5041 63.5046 11.121C62.2914 11.2856 62.4594 10.4488 62.747 10.3182ZM161.774 2.90522C161.332 2.90421 160.89 2.90347 160.449 2.90302C160.341 2.71715 160.232 2.53129 160.124 2.34546C160.674 2.53161 161.224 2.7182 161.774 2.90522ZM94.673 6.38085C94.1753 7.36134 93.0731 6.56991 92.05 7.44257C91.6433 7.49135 91.2375 7.54036 90.8323 7.58963C90.8313 7.58973 90.8302 7.58985 90.8293 7.58995C90.7914 7.34018 90.7536 7.09041 90.7157 6.84065C92.0278 6.68484 93.3469 6.53156 94.673 6.38085ZM189.523 2.04588C189.25 2.16354 188.978 2.28131 188.705 2.39919C188.22 2.26331 187.734 2.12777 187.249 1.99256C187.511 1.89371 187.773 1.79495 188.035 1.69629C188.531 1.81247 189.027 1.92899 189.523 2.04588ZM87.4967 7.06605C88.9315 6.79069 89.5438 7.53255 87.714 7.73638C86.9328 7.82319 85.9918 7.35592 87.4967 7.06605ZM258.872 4.29193C258.378 4.32921 257.886 4.36685 257.394 4.40484C257.238 4.22573 257.082 4.04666 256.927 3.86762C257.575 4.00844 258.223 4.14988 258.872 4.29193ZM56.0217 11.4244C56.106 11.5823 56.1903 11.7402 56.2746 11.8982C56.7194 11.7945 57.1343 11.6959 57.5605 11.596C57.427 11.4466 57.2934 11.2974 57.1599 11.1481C56.7899 11.2384 56.4082 11.3308 56.0217 11.4244ZM255.576 4.19029C255.179 4.19846 254.783 4.20686 254.386 4.21549C254.126 4.11761 253.866 4.01984 253.606 3.92217C253.98 3.86251 254.354 3.80307 254.728 3.74383C255.011 3.89253 255.294 4.04135 255.576 4.19029ZM73.9145 8.77562C74.441 8.50194 76.7409 8.8475 74.7635 9.26278C73.5068 9.52792 73.8357 8.81715 73.9145 8.77562ZM70.9185 8.96516C72.9614 8.30422 71.6423 10.4571 68.9958 9.53198C71.5157 9.36654 70.8004 9.00519 70.9185 8.96516ZM52.3442 10.6747C52.2916 10.6842 52.2928 10.9701 51.8732 11.0488C50.3611 11.3308 48.4002 11.7717 47.3399 11.9702C44.6832 12.4479 36.7311 13.3823 35.8985 14.3876C35.7345 14.5938 36.2825 15.0116 36.2076 15.0529C35.986 15.1696 34.5965 15.1837 34.9167 15.5068C36.226 15.2508 37.577 14.9921 38.8394 14.7547C38.4752 14.5513 38.1114 14.3481 37.7476 14.1452C40.9768 13.6888 39.9196 13.8714 40.9496 14.2721C41.4566 13.9515 41.9662 13.6312 42.4784 13.3113C43.7194 13.319 44.9682 13.3292 46.225 13.3419C45.9201 13.2235 45.6156 13.1052 45.3112 12.9872C47.0918 12.3624 46.6239 12.6516 47.6654 12.8882C47.6392 12.7218 47.613 12.5554 47.5868 12.389C49.375 12.5026 49.6334 11.9498 50.0108 11.8807C50.7923 11.7424 52.0872 13.5438 54.791 11.1077C56.2111 11.8497 55.8961 9.93574 56.7846 10.7963C58.7398 9.40853 54.7397 10.4153 52.8028 10.7666C52.8018 10.7667 52.8007 10.7669 52.7998 10.7671C52.6548 10.7935 52.8568 10.5777 52.3442 10.6747ZM63.4569 9.97511C62.0253 9.29475 67.1747 8.47793 65.6426 9.97244C65.3936 10.0491 65.1451 10.1258 64.8969 10.2027C64.4151 10.1266 63.934 10.0509 63.4539 9.97554C63.4549 9.9754 63.4559 9.97525 63.4569 9.97511ZM111.471 4.02258C116.203 4.00244 113.566 4.71889 111.936 4.35733C111.611 4.28592 111.427 4.16689 111.471 4.02258ZM208.499 1.0222C208.567 1.12843 208.635 1.23467 208.702 1.34091C207.105 1.21368 204.027 1.57693 204.079 0.869853C205.549 0.917509 207.022 0.968279 208.499 1.0222ZM195.9 0.419604C196.244 0.378344 197.65 0.286211 197.479 0.550322C196.868 0.734116 196.258 0.918447 195.65 1.10331C195.367 0.984554 195.085 0.865912 194.802 0.747384C195.197 0.709009 195.807 0.430271 195.9 0.419604Z" fill="#FF92A7"/>
</svg>
