<svg width="65" height="58" viewBox="0 0 65 58" fill="none" xmlns="http://www.w3.org/2000/svg">
<path d="M5.61728 55.6855C6.20431 53.789 6.92849 51.9592 7.88581 50.1725C8.10376 49.7653 8.27205 49.8914 8.38206 49.7335C8.58451 49.4433 8.6294 48.8195 8.66392 48.7452C8.87557 48.2826 9.11844 48.6145 9.15985 48.5583C9.61388 47.9275 9.14937 47.9541 9.42094 47.2756C9.7745 46.3919 10.3546 45.3168 10.855 44.2867C11.0317 43.9254 11.2049 44.2032 11.5495 43.4063C11.7937 42.8419 12.3046 40.9997 12.973 40.3526C13.0894 40.401 13.1695 40.5591 13.268 40.6557C13.3158 39.3054 13.5244 38.911 14.3837 37.3641C14.5196 37.1194 14.4352 36.7887 14.7146 36.3761C14.9939 35.9638 15.3044 36.085 15.717 35.1866C15.8627 34.8676 15.7395 34.5758 15.9568 34.0839C16.5743 32.6844 18.0652 30.1653 18.6029 29.031C19.6622 26.7974 19.8654 25.4089 20.9161 23.4763C20.9964 23.3272 21.0732 23.7723 21.2083 23.4934C21.3445 23.212 21.1726 22.7734 21.1976 22.7003C21.4676 21.9107 22.62 20.5121 22.7643 20.0702C23.1142 18.9956 22.5125 19.9353 23.1088 18.4978C23.6766 17.1289 24.9397 15.4615 25.6364 14.1668C26.444 12.6666 26.0907 11.8979 27.24 11.0194C28.9048 7.35003 30.5868 3.67281 32.26 2.71797e-05L35.073 0.580005C35.0886 1.01886 35.1089 1.51349 35.1303 1.96438C34.9958 1.95724 34.8612 1.94808 34.7267 1.93842C34.8328 2.27908 34.9409 2.63243 35.0493 2.99019C34.9472 2.9427 34.8449 2.89304 34.7438 2.8432C35.2048 4.48263 35.4899 5.9379 35.5259 7.88168C35.5267 7.91964 35.2528 7.8399 35.2482 7.87171C35.2299 8.31089 35.4736 8.79569 35.4553 9.173C35.4123 10.1106 34.9728 11.7317 35.6213 10.9774C35.6641 13.1507 36.1682 15.6588 36.2767 17.7265C36.3231 18.6161 35.9392 18.944 35.968 19.369C35.9975 19.7944 36.3304 19.5336 36.3633 19.6818C36.5576 20.5767 36.7466 22.0636 36.3672 22.2776C36.5535 22.4374 36.7434 22.6075 36.9314 22.7694C36.4662 22.7244 37.0629 25.4883 37.1743 26.2184C37.1937 26.3523 37.0018 26.4023 37.02 26.503C37.2274 27.6225 37.5789 27.8426 37.846 28.7851C37.9404 29.1141 37.5058 28.6537 37.8059 29.4894C37.8328 29.5622 38.131 29.4674 38.317 30.4962C38.6095 32.1378 39.3608 35.2356 39.6585 37.1984C39.6831 37.3596 39.2398 36.9529 39.4841 37.6603C39.5726 37.9161 39.7782 37.7365 39.9297 38.369C40.5211 40.8211 40.9472 43.5008 41.9282 45.8875C41.6404 45.8809 41.0759 45.0936 41.6476 46.36C41.7411 46.5629 41.9242 46.3319 41.9627 46.4238C42.2717 47.1678 42.3187 47.8715 42.6904 48.664C42.8004 48.8958 43.002 48.8926 43.1495 49.1748C43.3673 49.5869 43.1831 49.8825 43.4803 50.3517C43.949 51.0821 44.2324 51.1047 44.1522 52.2702C44.6726 53.537 45.2446 54.799 45.8527 56.0039L43.3798 57.3074C41.1163 53.4972 38.0647 50.0069 35.0056 46.6013C33.7002 45.4733 32.436 44.4776 31.0776 43.313C30.6712 42.966 30.8394 42.6482 30.1263 42.17C29.9615 42.0548 28.7127 41.4652 29.0111 40.8023C28.6834 40.6032 28.4952 40.4478 28.2273 40.2727C28.347 40.5064 28.4748 40.7497 28.5886 40.9821C27.6228 40.0187 26.5989 39.5072 25.582 38.8577C24.8257 38.3763 25.5079 38.5267 25.0621 38.2197C24.6154 37.9131 24.3806 37.8185 24.0459 37.118C23.3659 37.1292 23.2664 36.6903 22.4648 36.0987C22.3759 36.0332 21.7891 35.8109 21.3893 35.4919C21.1011 35.2622 21.16 34.9867 20.6496 34.6847C20.5657 34.6325 19.3699 34.2106 19.021 34.0175C18.4767 33.7117 17.852 32.9156 17.7492 32.8461C16.3136 31.866 15.5836 31.8118 14.8029 30.7205C14.4294 30.8714 13.4491 30.515 12.7469 30.0845C11.8715 29.5383 10.3242 27.9679 9.74847 28.4534C8.81152 27.6202 8.85021 27.8512 7.56427 27.2183C6.3967 26.632 3.37687 24.9579 2.37019 24.5833C1.38844 24.2057 1.70957 24.7615 1.3051 24.6469C0.640255 24.4626 1.09097 24.3421 0.654017 24.1665C0.432682 24.078 0.215174 23.9935 1.19209e-07 23.9122L0.59818 20.8251C1.66063 20.8021 2.6392 20.7473 3.69533 20.6454C3.76447 20.845 3.83887 21.0455 3.91057 21.2451C3.97713 21.1786 4.0434 21.112 4.10996 21.0455C4.3866 21.0475 4.69667 21.0434 4.95283 21.0495C2.79125 20.1734 7.04067 21.1143 8.31637 21.1364C9.39229 21.1546 11.1832 20.7391 12.3642 20.6494C12.6508 20.6273 12.4538 20.8429 12.5126 20.838C13.2042 20.7765 13.3092 20.6292 14.2391 20.6494C14.7309 20.6605 15.2329 20.9305 15.7118 20.9356C19.229 20.9719 22.6233 20.7006 26.1174 20.6713C26.7117 20.6663 27.2243 20.996 27.7238 21.0031C28.4384 21.0132 28.8893 20.7432 29.5603 20.7391C30.2288 20.7351 31.1924 21.0576 31.6459 21.0083C32.0993 20.9599 31.3234 20.6473 32.1534 20.733C32.5346 20.7724 31.8613 21.0052 32.3324 21.0122C33.8028 21.0344 35.8777 20.7461 37.4429 21.0254C37.3737 20.9558 37.2793 20.8932 37.1948 20.8267C38.8624 20.8539 40.3357 21.0213 42.0571 21.0455C42.6591 21.0545 43.7448 20.8501 44.3365 20.8511C44.9281 20.8521 45.1973 21.0738 45.671 21.08C45.8657 21.083 45.7896 20.8843 45.9203 20.8883C47.5543 20.9408 48.4509 21.2945 50.1618 21.2542C53.2711 21.1812 56.4285 21.1131 59.5982 21.0468L64.1979 21.0146L60.3563 23.5795C57.7025 25.4053 55.0372 27.2364 52.3934 29.0552C52.1824 29.2003 52.1807 29.5112 51.8894 29.7486C51.4409 30.1145 51.2916 29.9388 51.223 29.9743C50.7759 30.208 51.0633 30.2725 50.5005 30.6426C49.2612 31.4576 47.1589 32.6154 45.9328 33.441C43.1066 35.3442 40.8245 37.0863 38.0894 39.0067C37.8926 39.1458 37.8607 38.8 37.5096 39.0261C35.0329 40.6161 34.6737 41.2035 31.5676 43.1471C28.4614 45.0908 22.5823 48.7346 18.9761 51.0553C18.9757 51.0547 18.9753 51.0541 18.9749 51.0535C18.1584 52.2686 16.6217 53.1105 15.1749 53.5491C21.3933 47.7874 28.4194 43.9115 35.8503 38.9586C43.661 33.7535 51.4634 27.4075 59.4864 22.2969C59.4927 22.2929 59.4989 22.289 59.5051 22.2851L59.5982 22.5961C58.7202 22.578 58.3608 22.2612 57.6139 22.3282C57.4866 22.3396 57.8162 22.5883 57.4247 22.6135C52.0452 22.9523 46.3095 22.3855 41.0273 22.5427C39.6031 22.5851 39.3797 22.8624 38.1271 22.934C38.3474 22.8029 38.4913 22.6659 38.6834 22.5339C32.9656 22.1245 27.2397 22.307 21.4477 22.2485C21.1864 22.2455 21.153 21.9742 20.8789 21.9641C20.3309 21.943 19.8058 22.2414 19.3269 22.2516C18.7018 22.2647 18.5937 22.0489 18.0173 22.063C17.736 22.0702 17.8201 22.2776 17.2084 22.2424C17.1572 22.2394 17.1237 22.0218 16.7167 22.0499C15.6025 22.1275 13.3251 22.31 12.4027 22.3645C11.2246 22.4341 10.2792 22.1063 9.8333 22.085C8.62951 22.0275 8.65453 22.3632 7.6355 22.3633C5.26505 22.3639 2.9287 22.3236 0.59818 22.2691L0.539338 22.5728C4.95616 24.4746 9.1821 26.6835 13.509 29.1298C13.9205 29.3592 15.5852 29.8933 16.3239 30.362C16.575 30.5176 17.7942 31.3877 17.9875 31.5227C18.7549 32.044 19.2784 32.6562 19.6825 32.9801C20.4519 33.5985 21.545 33.9214 22.0086 34.2027C22.8097 34.6805 24.1421 35.7071 24.4437 35.9458C25.1942 36.533 24.6822 36.6955 25.2853 37.025C25.4627 37.1225 25.5011 36.7288 26.0593 37.159C26.5291 37.5243 26.5675 37.8757 26.8557 38.1618C27.1441 38.4471 27.964 38.6082 28.1583 38.7803C29.1461 39.6615 29.4371 40.2394 30.504 41.1866C31.4214 41.9407 35.5403 45.6419 35.8962 45.9374C37.6231 47.1349 35.1012 44.79 34.9643 44.656C34.2605 43.8513 34.4977 43.8624 33.5262 43.35C33.4924 42.0188 30.0847 40.9018 30.1666 39.548C29.0197 39.5335 28.7244 38.8083 28.0939 38.1083C27.2441 37.1649 27.7241 38.095 27.0041 37.5274C26.7175 37.3007 26.0948 36.3966 25.6305 36.1048C25.167 35.8128 24.825 35.8743 24.2373 35.4588C23.1703 34.7081 22.3966 34.0173 21.6552 33.1385C21.413 33.1363 21.1853 33.1448 20.9467 33.1464C20.4103 32.6079 19.8414 32.0589 19.294 31.5339C19.3312 31.6983 19.3673 31.8635 19.4032 32.0276C19.2105 31.9226 19.0168 31.8167 18.8228 31.7114C18.3018 31.1663 17.7891 30.6504 17.2444 30.1011C15.1252 29.6132 15.9503 29.4266 15.0059 28.7692C14.0507 28.1139 13.2915 28.143 12.5146 27.7187C11.461 27.1478 10.9748 26.9457 9.91283 26.3664C9.30743 26.0361 8.42587 25.1725 9.01741 26.1433C7.05485 25.2027 4.32183 24.1312 2.62848 23.1522C2.1334 22.8646 2.90524 22.9853 2.82535 22.9259C2.4247 22.6336 1.92881 22.7601 1.48212 22.5284C1.27238 22.4196 1.00845 22.275 0.722661 22.1175L0.59818 22.7599C1.4125 22.8602 2.37773 22.9953 2.84679 23.0359C3.78695 23.1176 5.26505 22.7182 5.41618 22.6889C6.26117 22.5267 6.48727 22.8583 6.75865 22.8354C8.30329 22.7023 8.64423 22.563 9.13091 23.2627C9.53075 22.9602 11.206 22.4512 11.6108 22.9602C11.6212 22.5005 13.0119 22.578 13.8675 22.4631C14.0263 22.5962 14.1879 22.7285 14.3467 22.8626C16.1322 22.0398 19.6877 22.6375 22.0368 22.7353C22.0957 22.7373 22.201 22.3928 22.5545 22.4704C22.5769 22.4768 22.5405 22.6316 22.7777 22.6517C23.559 22.7163 26.5402 23.103 26.8832 23.1064C28.1462 23.1195 28.3669 22.8624 29.1354 22.8382C30.1471 22.8059 30.2934 23.038 31.2562 23.0048C31.7069 22.9897 32.1171 22.6842 32.8264 22.7274C33.2463 22.7526 33.2879 22.9925 33.6205 23.0118C34.804 23.0814 35.6732 22.93 36.7235 23.2425C36.9976 22.4794 37.4995 23.0419 38.0195 23.0994C40.1303 23.3343 42.761 23.0118 44.5721 23.0814C49.8262 23.2848 54.5269 23.7059 59.5982 23.8492L58.8166 21.2381C58.4905 21.4395 58.1636 21.6435 57.8355 21.8503C57.0769 22.3286 57.107 22.7674 56.3081 23.2638C55.9489 23.4866 55.4324 23.4942 54.8524 23.8707C54.3859 24.1728 53.7981 24.7281 53.2177 25.1086C53.0636 25.21 52.907 25.0016 52.679 25.1491C50.95 26.2681 49.3711 27.5273 47.7031 28.7763C47.0849 29.2393 46.4972 29.2133 46.9359 29.6427C46.6089 29.6816 46.2992 29.7318 45.9883 29.7625C45.3099 30.6612 44.3697 30.8078 43.2243 31.6769C43.1014 31.7715 42.4242 32.7132 41.7464 32.8007C41.8275 33.0032 42.0069 33.1024 42.0982 33.2739C41.6359 33.6757 40.721 33.9819 40.3646 34.186C40.0087 34.3899 39.9322 34.7724 39.8308 34.8424C39.443 35.1059 39.3337 34.7408 39.3004 34.7554C37.2827 35.6636 37.5818 35.6997 36.7803 36.882C36.58 37.1789 34.4857 38.0762 34.3441 38.6867C34.2302 38.5505 34.2493 38.3522 34.1869 38.1918C33.599 38.5241 33.0061 38.8582 32.4161 39.1919C32.629 39.2546 32.8661 39.3016 33.0689 39.3722C31.8345 40.0078 31.0947 40.972 30.1437 41.5818C29.5999 41.9297 29.4601 41.5738 29.1882 41.8504C29.1351 41.9047 29.3788 42.047 29.2061 42.1848C27.796 43.3088 26.9918 43.5179 25.4616 44.4639C24.7443 44.9067 24.3806 45.6959 23.2042 46.1075C23.0965 46.1445 21.8813 46.4552 21.5904 47.3462C21.2943 47.3202 21.0693 47.3521 20.8384 47.3181C20.0761 48.8584 19.9511 47.9223 18.1644 48.8559C17.2396 49.3386 14.4061 51.384 13.5132 52.0821C12.9822 52.499 13.1799 52.7773 13.0871 52.8547C12.5311 53.3144 12.3489 53.0384 11.8246 53.4482C11.3001 53.8583 10.8053 54.6314 10.2172 54.9771C9.76654 55.2419 9.88455 54.6724 9.3191 55.2156C9.20272 55.3292 9.7755 55.3699 9.02094 55.7024C8.90229 55.7551 7.60954 56.1537 7.34207 56.2319C7.79341 55.6732 9.29322 54.3453 9.86732 53.8616C19.7509 45.528 41.3476 31.3072 52.9066 23.9365C53.9797 23.2515 54.8724 23.094 55.583 22.6642C56.2937 22.2343 55.5267 22.345 56.1709 21.954C56.8157 21.5638 57.4017 21.4562 58.0013 21.086C58.1709 20.9814 58.3405 20.8767 58.5101 20.7721L59.5982 24.4069C55.0455 24.2751 50.4641 24.1393 45.9508 24.0784C44.7289 24.0623 43.7523 24.3296 42.6406 24.3296C42.2079 24.3294 42.1945 23.9848 41.8872 23.9878C38.5751 24.015 35.5111 24.3467 32.2169 24.3064C30.8491 24.2892 29.3711 23.9988 28.0161 23.9716C26.8994 23.9484 25.7416 24.147 24.7376 24.1511C24.1925 24.1541 23.905 23.8916 23.7078 23.8709C23.0212 23.8023 23.2612 24.123 22.9102 24.123C21.9421 24.1219 21.4605 23.7348 20.5538 23.765C20.1979 23.7771 20.2437 24.0238 19.7268 24.0622C19.0712 24.1106 19.3137 23.883 18.8454 23.8749C18.8172 23.8739 18.9091 24.0503 18.6608 24.0574C17.0622 24.1037 15.0664 24.2428 13.5242 24.2307C10.335 24.2065 7.18681 23.8667 4.21532 23.8001C3.46473 23.784 3.66394 24.0139 3.4257 24.025C2.27831 24.0774 1.86844 23.8023 0.667121 23.9011C0.648967 23.9026 0.625827 23.9065 0.59818 23.9125L1.15315 21.0484C1.43763 21.0986 2.22498 21.1416 2.84878 21.4839C3.22025 21.6871 3.57439 22.0547 3.88946 22.242C4.20099 22.4279 4.37122 22.183 4.76643 22.3573C5.48503 22.6765 5.18843 22.763 6.22594 23.1979C6.65055 23.3762 8.11836 23.7582 9.16713 24.3036C10.8485 25.1718 12.8389 26.5058 14.7706 27.6158C15.4467 28.0043 16.4329 28.2295 17.471 28.8562C18.7158 29.5982 20.961 31.1232 22.1817 31.9702C22.8138 32.4047 22.681 32.6985 22.7481 32.7604C23.1778 33.1664 23.1856 32.7432 23.4978 32.9796C23.9223 33.3023 24.1843 33.8093 24.5694 34.1105C24.8148 34.3027 25.0072 34.1228 25.063 34.161C27.1322 35.5754 28.857 36.9655 30.7761 38.5536C36.614 43.4722 42.1663 48.8008 46.3479 55.636L42.7965 57.5081C40.1611 52.2505 38.4012 46.6983 37.0504 41.1481C36.7908 40.0649 37.0988 39.9445 36.8218 39.0054C36.5485 38.0696 35.6509 37.2941 36.242 36.343C36.0828 36.3511 35.9737 36.3774 35.8283 36.3824C35.6163 34.3587 35.0026 32.4246 34.6243 30.4833C34.3449 29.0496 34.1554 27.7688 33.9605 26.4303C33.7915 25.2478 34.0788 25.3092 33.572 24.337C33.0422 19.2184 32.4104 14.0546 32.3862 8.96284C31.7089 7.79784 31.9957 6.64902 31.9857 4.98211C31.9853 4.77927 31.7836 5.00866 31.7689 4.40965C31.7503 3.63056 32.0547 3.23064 31.986 1.95684C31.9789 1.82683 31.8932 1.2709 31.8157 0.671292L35.2155 1.37224C34.9287 2.19109 34.5502 3.19024 34.2269 3.63022C33.6714 4.38623 33.0117 5.54863 32.4484 6.34049C32.6326 6.27637 32.8266 6.17688 33.0156 6.09796C32.8368 6.54032 32.6563 6.98462 32.4776 7.42697C32.2957 7.4188 32.1137 7.41066 31.932 7.39975C31.9609 7.71819 31.988 8.03592 32.0176 8.35753C30.9796 8.53921 31.4953 8.0983 31.1297 9.4054C30.9458 10.06 30.5844 10.4796 30.3737 11.1416C30.2984 11.3804 30.4626 11.6317 30.3768 11.8937C30.1656 12.5354 30.0123 12.033 29.8394 12.4098C29.6663 12.7898 29.7631 13.4957 29.2927 14.102C28.9989 13.1046 28.2515 15.2461 28.6899 15.5683C28.5777 15.8124 28.4627 16.0074 28.3514 16.2829C27.245 15.4671 27.5196 17.1458 27.4518 17.73C27.3838 18.3138 27.0651 18.1409 27.0229 18.2653C26.9001 18.6232 27.1518 18.438 27.0454 18.6792C26.3371 20.2766 25.444 21.6756 24.6996 23.2308C24.5926 23.4545 24.8707 23.3412 24.7308 23.595C24.5906 23.849 24.2891 24.0149 24.1217 24.4089C24.0766 24.5145 24.2244 24.6228 24.1493 24.7851C22.5637 28.181 20.9264 31.3441 19.2958 34.801C19.1484 35.1138 19.3238 35.4946 19.0322 36.0963C18.7407 36.6979 18.052 37.4965 17.6823 38.2399C17.5841 38.4372 17.8003 38.6034 17.6709 38.8653C17.2304 39.7565 16.6734 40.4417 16.2067 41.3631C15.4183 42.9201 14.7965 44.645 13.9085 46.184C13.7407 46.4761 13.562 46.334 13.3015 46.7465C12.8519 47.4586 13.2778 47.3098 13.2459 47.4814C13.14 48.0421 12.6767 48.0186 12.5517 48.5505C12.5328 48.6319 12.8133 48.6335 12.786 48.7018C12.3473 49.7521 11.7799 49.5545 11.5615 50.7862C10.7969 51.6167 11.447 49.9384 11.3592 49.6943C11.1465 49.0989 10.1723 49.9594 9.72493 50.5255C9.33966 51.0131 9.59202 51.1253 9.4908 51.3436C8.95561 52.4987 8.20489 54.2404 7.67823 55.0636C7.35986 55.5625 7.70081 54.555 7.49228 54.7886C7.28499 55.0199 7.39225 55.2817 7.05821 55.4627C6.72407 55.6436 5.85665 55.9265 5.61728 55.6855ZM40.9535 45.043C39.3295 43.5015 38.1406 38.4162 37.6847 35.6733C37.2828 33.3946 37.7485 31.2869 36.6411 31.9821C37.1046 34.4393 37.6391 36.3924 38.2128 38.9713C38.271 39.2429 38.5523 40.8569 38.6799 41.4185C38.7501 41.7329 38.5581 41.7939 38.6721 42.2166C38.6974 42.3093 39.0868 42.748 39.1314 42.937C39.2785 43.5841 39.4388 45.5851 39.5347 45.848C39.789 46.5685 40.0028 46.1962 40.1532 46.4923C40.6634 47.4945 40.2528 47.7494 40.7454 48.7434C40.8348 48.9227 41.4291 49.4061 41.6505 50.1795C41.7414 50.4994 41.7382 51.1001 41.8368 51.332C42.3703 52.6 43.2159 53.9205 43.6867 55.0722C44.0821 56.0316 43.6825 55.9111 43.8787 56.4239C43.9368 56.5726 44.0307 56.7143 44.1392 56.8472L45.0439 56.3703C44.7708 56.0752 44.3792 55.789 44.238 55.5892C43.8927 55.0899 43.672 54.3855 43.5561 54.2207C41.4405 51.2363 39.1398 48.9211 36.6662 46.4322C38.2007 48.2539 39.6717 50.1393 40.988 52.0772C42.0666 52.9474 41.4068 52.5869 41.8561 53.3636C42.1881 53.9588 42.7522 53.7912 43.2117 54.5773C43.2112 54.5766 43.2108 54.576 43.2104 54.5753C43.4527 54.9922 43.6788 56.0181 44.286 56.7972L44.9197 56.4631C44.9139 56.4548 44.908 56.4464 44.9021 56.4381C44.8817 56.4082 44.5827 56.4612 44.2506 55.7831C43.4994 54.2622 42.376 51.9021 41.7942 50.0731C41.624 49.5413 41.9459 49.5492 41.765 48.9124C41.6334 48.446 41.1902 48.0044 41.018 47.2653C40.8026 46.3307 41.1328 45.7646 40.3066 45.3301C40.5193 45.2105 40.7494 45.1702 40.9535 45.043ZM30.4236 7.1628C30.3435 7.27279 28.9159 8.58107 29.8596 8.43477C31.1843 6.40055 32.1229 3.97212 33.3632 1.76036C32.2873 2.21261 31.953 3.66767 31.2586 5.29974C31.2583 5.30043 31.258 5.30111 31.2577 5.30179C31.2248 5.37887 31.186 4.97507 31.0194 5.42223C30.9388 5.63899 30.8517 6.57356 30.4236 7.1628Z" fill="#E3346B"/>
</svg>
