<svg width="71" height="48" viewBox="0 0 71 48" fill="none" xmlns="http://www.w3.org/2000/svg">
<path d="M35.7632 7.22062C35.3563 6.50105 34.9385 5.87663 34.299 5.31397C34.2986 5.3137 34.2983 5.31342 34.2979 5.31315C34.2058 5.23353 34.1108 5.15735 34.0099 5.08384C33.201 4.52028 31.8797 3.88824 29.7798 4.83943C27.478 5.96476 26.201 8.14833 25.5506 9.4223C25.4278 9.67261 25.3134 9.90991 25.1066 10.6187C24.9794 11.0683 24.8202 11.7097 24.6978 12.6315C24.6332 13.1214 24.5786 13.7287 24.5609 14.4048C24.452 16.6865 25.1061 20.3995 26.3936 23.5803C26.6222 24.1662 26.8708 24.7546 27.1327 25.3336C27.7172 26.6257 28.3009 27.7159 28.8363 28.6282C29.9469 30.5126 31.1765 32.2374 32.7491 33.8829C34.1896 35.3761 35.9192 36.8161 38.2014 37.9478C39.9439 38.8047 41.7402 39.4609 43.6561 39.7906C43.8998 39.8324 44.1452 39.8687 44.3927 39.8992C46.0996 40.1089 47.9056 40.0494 49.7917 39.5653C53.1436 38.6709 55.5449 36.9593 57.7321 34.7968C58.5797 33.9466 59.4101 32.9895 60.2414 31.8866C61.5506 30.1749 63.2062 27.4927 64.4568 24.5819C64.5627 24.3389 64.6671 24.0925 64.7698 23.8438C64.7703 23.8426 64.7708 23.8413 64.7713 23.8401C65.8854 21.1521 66.6646 18.4302 67.134 16.3612C67.851 13.1146 67.9319 11.8692 68.0535 10.8134C68.0937 10.417 68.1294 10.0382 68.1697 9.62258C68.3223 8.09432 68.5562 5.73313 68.6645 3.32872C68.6649 3.31942 68.6653 3.31015 68.6657 3.30086C68.6845 2.89729 68.8366 2.57228 69.0093 2.58006C69.1819 2.58776 69.3097 2.92794 69.2908 3.3349C69.23 4.64175 69.1453 5.8356 69.0493 6.96435C69.1921 7.03594 69.2772 7.35244 69.2407 7.71556C69.1354 8.62157 69.0381 11.3826 68.3013 15.6907C68.391 15.4066 68.4683 15.1666 68.5372 14.9554C68.6181 14.7074 68.6817 14.516 68.7359 14.3508C68.8484 14.0078 68.924 13.7665 69.0166 13.3738C69.2066 12.462 69.4615 10.8904 69.6476 9.33838C69.6959 8.9423 69.8707 8.63299 70.0423 8.65323C70.2138 8.67348 70.3168 9.01882 70.2681 9.41877C70.2672 9.42659 70.2663 9.43441 70.2653 9.44222C70.0789 10.9945 69.8146 12.6273 69.6122 13.588C69.5613 13.8326 69.5107 14.0601 69.4715 14.2269C69.4401 14.3607 69.3998 14.5267 69.3716 14.6175C69.3678 14.6296 69.3605 14.6526 69.3509 14.6797C69.3507 14.6802 69.3505 14.6806 69.3503 14.6811C69.3449 14.6963 69.3177 14.7739 69.2757 14.8538C69.2672 14.8699 69.2485 14.905 69.2216 14.9445C69.2179 14.9553 69.2142 14.9662 69.2106 14.977C69.1596 15.1283 69.1073 15.2818 69.0522 15.4474C68.8321 16.0905 68.535 17.1131 67.8331 19.2341C67.1728 21.1712 66.1265 24.4585 64.0655 28.2707C64.2231 28.008 64.3604 27.7748 64.5048 27.5207C64.8628 26.8915 65.2145 26.2215 65.5421 25.5514C65.6641 25.3026 65.7828 25.0541 65.9018 24.7975C66.0935 24.3844 66.2811 23.9616 66.4639 23.5304C66.588 23.2376 66.7081 22.945 66.8205 22.6652C66.8208 22.6645 66.821 22.6639 66.8212 22.6632C66.9792 22.2695 67.1339 21.8683 67.2862 21.4571C67.3399 21.3133 67.3923 21.1703 67.4437 21.0276C67.6504 20.4529 67.8388 19.9017 68.0571 19.2732C68.0854 19.1968 68.1171 19.1137 68.1415 19.0518C68.1675 18.9851 68.1928 18.921 68.2171 18.8603C68.2386 18.8068 68.2595 18.7557 68.2792 18.7066C68.2818 18.7 68.2845 18.6934 68.2871 18.6868C68.3092 18.6318 68.33 18.5791 68.3499 18.5283C68.3698 18.4776 68.3888 18.4286 68.4069 18.3801C68.407 18.3796 68.4072 18.3792 68.4073 18.3787C68.4261 18.328 68.4403 18.2894 68.4591 18.2352C68.4827 18.1672 68.5024 18.1084 68.5254 18.0368C68.5475 17.9676 68.57 17.895 68.592 17.8214C68.614 17.7479 68.6359 17.6726 68.6577 17.596C68.6796 17.5193 68.7014 17.4411 68.723 17.3621C68.7444 17.2837 68.7666 17.2004 68.787 17.1237C68.8075 17.0469 68.828 16.9691 68.8484 16.8907C68.8955 16.7102 68.9697 16.543 69.0565 16.4268C69.1434 16.3108 69.2355 16.2553 69.314 16.2738C69.3924 16.2923 69.4513 16.3837 69.478 16.528C69.5045 16.6723 69.4962 16.8576 69.4556 17.0417C69.4445 17.0919 69.4334 17.1422 69.4221 17.1927C69.4154 17.2226 69.4085 17.2528 69.4016 17.2828C69.3831 17.3648 69.3629 17.4529 69.3428 17.5385C69.3225 17.6245 69.3016 17.711 69.28 17.7982C69.2584 17.8857 69.2362 17.974 69.2128 18.0632C69.1895 18.1522 69.165 18.2428 69.1392 18.3343C69.1141 18.4237 69.0842 18.525 69.0562 18.615C69.0359 18.6808 69.0095 18.7615 68.9871 18.8284C68.9637 18.8983 68.94 18.9668 68.9168 19.0325C68.8934 19.0984 68.8703 19.1618 68.8483 19.2223C68.846 19.2288 68.8436 19.2352 68.8413 19.2417C68.8218 19.2951 68.8028 19.3465 68.7851 19.3951C68.7653 19.4495 68.7469 19.5009 68.7297 19.5497C68.7107 19.6035 68.6998 19.6364 68.6866 19.6766C68.5246 20.2027 68.3178 20.8884 68.1074 21.5318C68.0811 21.6124 68.0547 21.6923 68.0285 21.7712C67.8897 22.1903 67.7475 22.6024 67.6015 23.0081C67.4974 23.2974 67.3823 23.608 67.2655 23.9121C67.0936 24.3598 66.916 24.8009 66.7334 25.2333C66.62 25.5018 66.5067 25.7623 66.3896 26.0239C66.0702 26.7375 65.7303 27.4401 65.3769 28.1132C65.0333 28.769 64.6239 29.4919 64.2204 30.1408C63.8222 30.7834 63.3552 31.4764 62.8889 32.0981C62.545 32.5569 62.179 32.9964 61.8062 33.4172C61.6091 33.6391 61.414 33.8511 61.2201 34.0553C61.2194 34.056 61.2187 34.0567 61.218 34.0573C61.0479 34.2365 60.8787 34.4099 60.7102 34.5791C60.3456 34.9459 59.9641 35.3147 59.5917 35.659C59.2169 36.0056 58.8488 36.3327 58.4486 36.6744C58.0576 37.0079 57.658 37.3331 57.26 37.6413C56.8521 37.9575 56.436 38.264 56.0019 38.5642C55.4386 38.9544 54.8331 39.3396 54.215 39.6895C53.6085 40.034 52.9482 40.3671 52.2927 40.6526C52.0616 40.7534 51.8353 40.847 51.5939 40.9413C51.593 40.9416 51.592 40.942 51.5911 40.9423C51.1503 41.1145 50.705 41.2696 50.2567 41.407C49.5651 41.6192 48.8428 41.7945 48.1245 41.9214C47.3988 42.0497 46.6608 42.1329 45.9179 42.1664C45.173 42.2 44.405 42.1839 43.6419 42.1085C42.9614 42.0419 42.2741 41.9309 41.6205 41.7874C41.4471 41.7495 41.2741 41.709 41.1016 41.6659C40.2771 41.4599 39.513 41.2136 38.7546 40.9277C38.003 40.6433 37.2736 40.3243 36.5448 39.9602C35.8369 39.6074 35.1049 39.1937 34.4231 38.7611C33.7335 38.3244 33.0514 37.8407 32.4087 37.3374C31.7592 36.8287 31.1289 36.2832 30.5251 35.7107C30.1898 35.3933 29.8243 35.0211 29.5167 34.6907C29.1993 34.3498 28.8902 33.9979 28.591 33.6387C28.4696 33.493 28.3498 33.3459 28.2316 33.198C28.0636 32.9882 27.903 32.782 27.7441 32.5732C27.4767 32.2217 27.2196 31.8697 26.9719 31.5207C26.7197 31.1645 26.4976 30.8444 26.2745 30.5183C26.0451 30.1828 25.8551 29.9027 25.6264 29.5632C25.0812 28.7158 24.8097 28.2139 24.4901 27.6054C24.4281 27.4866 24.3651 27.3647 24.2998 27.2368C24.2138 27.0664 24.1289 26.8944 24.0454 26.7211C23.7669 26.1431 23.5119 25.572 23.28 25.0123C22.9839 24.3 22.6877 23.5007 22.4427 22.7438C22.2037 22.0099 21.9722 21.1837 21.7934 20.4063C21.6183 19.6516 21.4602 18.7969 21.3581 18.0084C21.2548 17.2283 21.184 16.3356 21.1696 15.5624C21.1591 15.094 21.1668 14.5801 21.1908 14.1254C21.208 13.7942 21.2321 13.4823 21.2655 13.1456C21.2789 13.0115 21.2935 12.8792 21.3092 12.749C21.3639 12.2962 21.4276 11.8884 21.505 11.4613C21.5827 11.0348 21.669 10.6327 21.7606 10.2477C21.8491 9.8749 21.9582 9.46063 22.0682 9.08467C22.185 8.68749 22.2823 8.37749 22.4338 7.94582C22.5308 7.6706 22.6321 7.40652 22.7392 7.14873C22.8936 6.77439 23.0865 6.36222 23.2821 5.98879C23.4771 5.6154 23.6947 5.24098 23.9313 4.87683C24.0069 4.76018 24.0885 4.63886 24.1673 4.52535C24.4038 4.18313 24.6832 3.82183 24.9611 3.49793C25.2361 3.17604 25.5436 2.85316 25.8597 2.55597C26.1743 2.25973 26.5097 1.97673 26.8709 1.7083C27.471 1.25889 28.1469 0.89573 28.7507 0.650686C29.378 0.39563 29.9825 0.227918 30.6038 0.121819C30.7192 0.102241 30.835 0.0849667 30.951 0.0700331C31.4498 0.0057621 31.9598 -0.0141368 32.4554 0.00978017C33.0671 0.0388365 33.6765 0.135057 34.2614 0.29314C34.8447 0.450225 35.4187 0.674609 35.9484 0.946134C36.4968 1.22906 36.96 1.52724 37.4508 1.91103C37.9286 2.28802 38.3615 2.68763 38.8067 3.18683C39.2166 3.64072 39.6521 4.23391 39.9778 4.76376C40.321 5.31767 40.632 5.93623 40.8743 6.51173C41.1281 7.11418 41.3345 7.7244 41.4989 8.3134C41.6691 8.92387 41.7998 9.5307 41.8985 10.1121C41.9993 10.7004 42.0772 11.3537 42.1204 11.8919C42.1955 12.8038 42.2183 13.7421 42.2017 14.6241C42.1845 15.5477 42.1298 16.4096 42.0445 17.295C42.0118 17.6329 41.9741 17.9759 41.9313 18.3237C41.8647 18.8628 41.7919 19.3948 41.7131 19.9194C41.5879 20.7535 41.438 21.6283 41.2734 22.4672C41.237 22.6532 41.1998 22.8382 41.1618 23.0223C41.0266 23.6774 40.8745 24.352 40.716 24.9946C40.7149 24.999 40.7137 25.0035 40.7126 25.0079C40.5111 25.8259 40.2769 26.6845 40.0336 27.4894C39.9455 27.7815 39.8504 28.0866 39.7555 28.3812C39.6599 28.6783 39.5639 28.9669 39.4652 29.2551C39.3659 29.5452 39.2684 29.8221 39.1623 30.1153C39.0569 30.4064 38.9525 30.6871 38.8458 30.9677C38.748 31.2248 38.6502 31.4782 38.5409 31.7518C38.5309 31.7768 38.5209 31.8017 38.5108 31.8267C38.3858 32.1373 38.2383 32.4851 38.0939 32.8019C37.7172 33.6285 37.3035 34.4574 36.8657 35.2533C36.4161 36.0699 35.9479 36.8469 35.4165 37.6386C35.2107 37.9449 34.9999 38.2463 34.7845 38.5411C34.4457 39.0052 34.0818 39.4711 33.7116 39.9118C33.0895 40.6521 32.434 41.3469 31.7048 42.0201C30.9934 42.6768 30.2131 43.3043 29.4009 43.8605C28.5845 44.4205 27.7164 44.9231 26.8269 45.3471C25.8303 45.8224 24.8024 46.2073 23.743 46.5023C22.6866 46.7965 21.6082 46.9972 20.5264 47.1064C19.4466 47.2156 18.3636 47.234 17.2907 47.1703C16.223 47.1069 15.1605 46.9614 14.128 46.748C13.4965 46.6177 12.9029 46.4689 12.2929 46.2929C11.9639 46.2221 11.6544 46.1493 11.3615 46.0754C9.16766 45.5035 7.65078 44.9154 5.7425 43.9674C5.55979 43.8782 5.40885 43.8082 5.22505 43.721C5.18999 43.7044 5.15285 43.6865 5.11493 43.6683C4.87473 43.5528 4.59784 43.4152 4.23814 43.2138C3.50982 42.8047 2.42729 42.1238 1.17129 41.0252C0.864556 40.7551 0.757138 40.4638 0.928867 40.3821C1.04933 40.3246 1.27396 40.3832 1.50088 40.5131C1.12527 40.2132 0.752045 39.9039 0.38059 39.5863C0.232324 39.4595 0.11249 39.3145 0.0491024 39.1845C-0.0142472 39.0545 -0.0162906 38.9506 0.0430542 38.8951C0.102422 38.8396 0.218814 38.8368 0.366863 38.8849C0.514864 38.933 0.68216 39.0277 0.833356 39.1473C1.23575 39.4659 1.6298 39.7674 2.03917 40.0678C2.45595 40.3735 2.87149 40.6653 3.28858 40.9458C3.69691 41.2205 4.14478 41.5084 4.57621 41.7719C5.00901 42.0364 5.44131 42.2883 5.8974 42.5396C6.35338 42.7906 6.7879 43.0166 7.25416 43.2453C7.53454 43.3827 7.81794 43.5164 8.09588 43.6421C8.19945 43.689 8.30056 43.7338 8.4016 43.7782C8.48418 43.8144 8.56711 43.8505 8.65246 43.887C9.57715 44.2824 10.5043 44.6239 11.4664 44.9155C12.4133 45.2024 13.3956 45.4389 14.3904 45.6072C15.3765 45.7743 16.3848 45.8757 17.3899 45.8997C18.3981 45.924 19.4085 45.8712 20.4075 45.7351C21.4075 45.5991 22.397 45.3795 23.3585 45.0767C24.1027 44.8425 24.824 44.5608 25.5242 44.2331C25.7949 44.0928 26.0607 43.9468 26.3157 43.799C27.0631 43.3658 27.767 42.87 28.4262 42.3365C27.2136 43.2222 26.1598 43.8236 25.1109 44.318C24.9705 44.3838 24.8303 44.4473 24.6896 44.5086C23.249 45.1271 21.7702 45.5884 19.7304 45.7707C13.8836 46.1135 10.7117 44.4746 8.84273 43.723C6.97964 42.8597 6.2557 42.3474 5.58818 41.8359C4.67702 41.1342 2.87535 39.8164 1.99666 39.1367C1.67671 38.8961 1.50452 38.5831 1.61206 38.448C1.71971 38.3127 2.06226 38.4029 2.37681 38.6393C3.29518 39.3499 5.20304 40.738 6.29493 41.5568C6.78493 41.9214 7.35416 42.345 9.14967 43.1746C10.9503 43.8942 14.0277 45.4807 19.6886 45.146C21.5884 44.9746 22.962 44.557 24.3414 43.9753C24.4765 43.9173 24.6111 43.8573 24.7465 43.795C24.7473 43.7946 24.7482 43.7942 24.749 43.7939C25.9972 43.2116 27.2978 42.4667 28.8608 41.2104C32.625 38.3724 35.3959 32.6371 35.8429 31.2644C35.9474 30.9922 36.0443 30.7248 36.1385 30.4535C36.4925 29.3937 36.9667 28.0902 37.6888 25.1208C37.8449 24.4626 38.0123 23.7183 38.1835 22.8599C38.3532 21.6013 38.479 20.3261 38.5744 19.2657C38.6152 18.8194 38.6418 18.3834 38.6582 17.9545C38.677 17.4803 38.6784 17.0329 38.6684 16.6049C38.6629 16.3683 38.6537 16.1339 38.6419 15.9038C38.6138 15.3507 38.5717 14.73 38.5237 14.197C38.4858 13.7723 38.4306 13.313 38.3555 12.8235C38.0693 11.126 37.6377 9.02722 36.4902 6.87068C35.2575 4.58705 33.3722 3.64804 31.6802 3.73131C32.9313 3.71079 33.7924 4.14641 34.4247 4.61042C34.5415 4.69756 34.6516 4.78778 34.7562 4.88038C35.4813 5.5366 35.8979 6.19342 36.3067 6.9108C38.0787 10.6044 37.8202 12.6322 38.0644 14.4937C38.1019 14.9996 38.1347 15.619 38.1546 16.2037C38.1707 16.7174 38.1743 17.2819 38.1544 17.8976C38.1281 18.7302 38.0781 19.5842 37.9821 20.4738C37.8232 21.9329 37.6177 23.5372 37.2966 25.2289C37.2964 25.2296 37.2962 25.2303 37.2961 25.2309C37.2322 25.5656 37.1646 25.9005 37.0932 26.2343C36.6528 28.2907 36.0322 30.4082 35.1744 32.3873C35.0844 32.5957 34.9697 32.8576 34.8378 33.1459C34.0766 34.7847 32.6029 37.7625 29.596 40.333C28.9405 40.8872 28.215 41.4064 27.3374 41.9214C27.0711 42.0771 26.7948 42.2293 26.496 42.3835C25.2201 43.0334 23.5968 43.7202 21.3335 44.1259C19.4685 44.4634 17.1304 44.5186 14.7575 44.08C13.5829 43.8678 12.419 43.5518 11.2865 43.1518C7.88518 41.9392 5.00369 40.1301 2.39177 38.0875C2.39123 38.0871 2.39069 38.0867 2.39016 38.0862C2.08149 37.8438 1.92666 37.536 2.04454 37.4092C2.16248 37.2822 2.50404 37.3798 2.80719 37.6173C5.38214 39.6279 8.20781 41.3932 11.5142 42.5685C12.6011 42.9514 13.7246 43.2568 14.8591 43.4623C17.1719 43.8916 19.4563 43.8349 21.2665 43.5018C23.4807 43.0986 25.064 42.4171 26.3088 41.7724C26.6107 41.614 26.8844 41.46 27.1461 41.3039C27.9796 40.8044 28.6358 40.3269 29.2344 39.8184C32.0472 37.3993 33.4539 34.6168 34.2104 33.0053C34.3445 32.7155 34.4594 32.4559 34.5569 32.2331C35.3842 30.3412 35.9995 28.2876 36.4413 26.2629C36.5118 25.9392 36.5789 25.6134 36.6426 25.2862C36.6426 25.2856 36.6427 25.2849 36.6428 25.2842C36.9678 23.6111 37.1798 22.0004 37.3423 20.5367C37.4498 19.5645 37.4968 18.6896 37.5211 17.8262C37.5338 17.3739 37.5338 16.9493 37.5258 16.5464C37.5126 15.9237 37.4832 15.3287 37.4454 14.7228C37.2207 12.8014 37.4302 10.6789 35.7632 7.22062ZM2.10491 40.9842C2.8841 41.6292 3.56778 42.087 4.09845 42.4079C3.66488 42.12 3.22194 41.8117 2.81338 41.5133C2.5766 41.3407 2.3405 41.1644 2.10491 40.9842ZM38.8203 22.8653C38.7989 23.0243 38.7767 23.1837 38.7539 23.343C38.8412 22.9028 38.9194 22.4796 38.9935 22.0513C39.0844 21.5253 39.1694 20.9888 39.2471 20.4486C39.113 21.3085 38.9674 22.1193 38.8203 22.8653ZM37.0363 6.56461C38.1885 8.7391 38.6191 10.6878 38.9377 12.4312C39.0233 12.9268 39.0914 13.4823 39.1369 13.9402C39.1561 14.1403 39.1749 14.3434 39.1925 14.5515C39.2146 13.3846 39.1496 12.2171 39.0452 11.3415C38.7087 8.64159 38.1459 7.2306 37.525 6.02424C37.3557 5.70411 37.1401 5.35433 36.9274 5.05816C36.73 4.83364 36.4926 4.58747 36.2544 4.37173C35.9286 4.07456 35.5246 3.76731 35.1405 3.5398C34.743 3.30153 34.3276 3.11079 33.8942 2.96875C33.4612 2.82706 33.0209 2.73844 32.5766 2.70073C32.1597 2.66522 31.7397 2.67607 31.3384 2.72727C31.3155 2.73017 31.2927 2.7332 31.2699 2.73636C30.8483 2.79455 30.4382 2.89919 30.0796 3.02791C29.7088 3.16111 29.4178 3.30418 29.1691 3.45131C28.8544 3.63762 28.5541 3.84605 28.2667 4.07381C27.9736 4.30582 27.7116 4.54399 27.454 4.80482C27.1918 5.07068 26.9637 5.33312 26.7376 5.62031C26.6649 5.71285 26.59 5.81178 26.52 5.9075C26.487 5.95251 26.4577 5.99389 26.4274 6.03689C26.871 5.47709 27.3851 4.95462 27.9716 4.50489C28.8266 3.85049 29.8705 3.3304 31.0664 3.15823C33.091 2.82375 35.5698 3.8143 37.0363 6.56461ZM23.947 16.4814C23.9158 16.1534 23.8749 15.7084 23.8529 15.0938C23.8479 14.9475 23.844 14.7944 23.8422 14.6355C23.842 14.6392 23.842 14.643 23.8419 14.6468C23.8266 15.0407 23.8251 15.4189 23.8344 15.7967C23.8513 16.4798 23.9112 17.2022 23.9957 17.8616C24.0824 18.542 24.2105 19.2575 24.3564 19.9157C24.5048 20.5888 24.6967 21.303 24.8946 21.9433C25.0959 22.5983 25.3474 23.3126 25.59 23.9298C25.6701 24.1343 25.7537 24.3407 25.8403 24.548C25.6621 24.0707 25.5015 23.6214 25.3209 23.0779C25.1798 22.6516 25.0445 22.2129 24.9182 21.7592C24.8693 21.5839 24.8165 21.3815 24.7539 21.1291C24.5038 20.1024 24.1545 18.5578 23.947 16.4814ZM28.5265 29.4825C28.6138 29.6163 28.7009 29.7481 28.7871 29.8774C29.0426 30.2613 29.2947 30.6275 29.545 30.9764C29.7208 31.2215 29.8963 31.4591 30.0714 31.6884C30.1458 31.7858 30.225 31.8881 30.3016 31.9855C30.4306 32.1497 30.56 32.3099 30.6894 32.4664C29.8015 31.3417 29.0175 30.1726 28.2943 28.9408C28.2847 28.9243 28.2748 28.9078 28.265 28.8911C28.3528 29.0947 28.4399 29.2917 28.5265 29.4825Z" fill="#8AA3E2"/>
</svg>
